<svg xmlns="http://www.w3.org/2000/svg" version="1.1" xmlns:xlink="http://www.w3.org/1999/xlink" xmlns:svgjs="http://svgjs.com/svgjs" width="260" height="260"><svg width="260" height="260" xmlns="http://www.w3.org/2000/svg" version="1.0" preserveAspectRatio="xMidYMid meet" zoomAndPan="magnify">
 <defs>
  <clipPath id="SvgjsClipPath1010">
   <path id="SvgjsPath1009" clip-rule="nonzero" d="m127,190l78.5,0l0,150l-78.5,0l0,-150zm0,0"></path>
  </clipPath>
 </defs>
 <g>
  <title>Layer 1</title>
  <g stroke="null" id="SvgjsG1008">
   <path stroke="null" id="SvgjsPath1007" fill-rule="nonzero" d="m16.70684,140.23218c-7.1747,6.99124 -13.17921,15.91126 -13.79902,25.89236c-0.65449,10.88848 5.31532,21.4497 13.79902,28.25747c8.48368,6.80777 19.22341,10.30339 29.92842,12.19746c-11.65205,-0.54541 -23.44789,-4.1154 -32.36792,-11.68676c-8.92002,-7.53665 -14.52788,-19.37216 -13.07013,-30.9548c1.12554,-9.13818 6.40614,-17.29462 12.74288,-23.95861c21.77198,-22.83307 54.83408,-29.93338 82.75934,-44.5753c38.56087,-20.17541 67.18029,-54.62087 97.87231,-85.46658c3.16836,-3.13366 6.52019,-6.37145 10.77939,-7.6854c8.40931,-2.61799 17.33429,3.24275 22.39177,10.45214c12.19748,17.1905 10.12489,40.4599 5.60786,61.03198c-3.7485,17.00705 -8.88531,33.8703 -17.47808,48.9783c-8.59277,15.15263 -20.93404,28.51531 -36.51804,36.27012c28.32688,-16.93266 43.22169,-49.66751 51.08558,-81.71314c2.98491,-12.12806 5.20623,-24.69243 3.89229,-37.14279c-1.27429,-12.42059 -6.48053,-24.87589 -16.16413,-32.81417c-1.60154,-1.309 -3.38654,-2.50891 -5.38969,-3.05929c-6.18799,-1.63624 -12.01402,3.35183 -16.42196,7.97794c-31.01926,32.2985 -61.13115,67.18526 -101.18447,87.25158c-26.50718,13.2883 -57.23886,20.06137 -78.46543,40.74748" fill="#000000"></path>
   <path stroke="null" id="SvgjsPath1006" fill-rule="nonzero" d="m139.88642,161.31497c-1.93375,2.07754 -4.2592,3.82782 -6.95653,4.7699c-2.65766,0.91233 -5.67728,0.94703 -8.26552,-0.25288c-1.38337,-0.65449 -2.58329,-1.63624 -3.67908,-2.69236c-1.23461,-1.20487 -2.39982,-2.55354 -3.38157,-4.00632c1.16521,-0.83796 2.65766,0.43633 3.71378,1.41808c2.58329,2.3304 6.26236,3.24273 9.68361,2.76673c3.46091,-0.43633 6.62432,-2.14695 9.28198,-4.36827c0.72887,0.54541 0.22312,1.71061 -0.39667,2.36512" fill="#000000"></path>
   <path stroke="null" id="SvgjsPath1005" fill-rule="nonzero" d="m121.46129,152.75691c-2.03787,1.82466 -4.7352,2.84112 -7.46227,2.80641c-0.72887,0 -1.71559,-0.51072 -1.42305,-1.16521c2.84112,-0.32725 5.53349,-1.64121 7.53665,-3.63941c1.02142,-1.05612 1.89408,-2.2957 3.20308,-2.98987c1.27429,-0.72887 3.16836,-0.61979 3.89724,0.6545c0.54542,0.91233 1.89408,1.05612 2.9155,0.69416c1.01645,-0.36195 1.92879,-1.05612 2.94524,-1.34866c1.34866,-0.39667 2.84112,-0.10907 3.9369,0.76854c1.63624,1.309 2.36512,3.82287 4.36829,4.40299c1.63624,0.476 3.85757,-0.43633 4.83932,0.98175c-2.4395,1.56682 -5.89544,1.38833 -8.15149,-0.50575c-0.80324,-0.65946 -1.45774,-1.53212 -2.37007,-2.11224c-0.90738,-0.54542 -2.18166,-0.72887 -2.9502,0c-1.85442,1.74533 -5.13186,1.74533 -6.99124,0c-0.61483,-0.58509 -1.60153,-0.5107 -2.36512,-0.14875c-0.72887,0.40163 -1.309,1.02142 -1.92879,1.60154" fill="#000000"></path>
   <path stroke="null" id="SvgjsPath1004" fill-rule="nonzero" d="m56.5767,77.81684c-0.69416,-3.56999 0.10909,-7.24907 1.09084,-10.74469c7.97794,-27.5633 31.38617,-50.1435 59.24202,-57.13473c7.75482,-1.9635 15.91126,-2.76675 23.77515,-1.38338c7.86391,1.38338 15.47493,5.09716 20.75554,11.14136c-7.79449,-6.00453 -17.5128,-9.43073 -27.34514,-9.53982c-5.45911,-0.07437 -10.92318,0.87266 -16.2038,2.2957c-30.33005,8.23082 -55.05224,34.55951 -61.3146,65.36556" fill="#000000"></path>
   <path stroke="null" id="SvgjsPath1003" fill-rule="nonzero" d="m109.9927,173.44303c4.83932,3.71378 10.05051,7.28377 16.02033,8.3746c6.69869,1.20487 13.65521,-0.90737 19.29778,-4.66082c5.64258,-3.78816 10.08524,-9.06877 14.01718,-14.60226c11.50827,-16.38726 18.78708,-35.79412 20.86462,-55.71666c0.90738,-8.84565 0.83796,-17.73096 0.76359,-26.61627c4.95336,30.36972 -2.29571,62.96076 -21.48442,86.99375c-6.99123,8.74151 -16.45666,16.75416 -27.63272,17.08142c-9.06877,0.28758 -17.62187,-4.62611 -24.03298,-11.03723c0.36691,-0.72886 1.53212,-0.32725 2.18662,0.18347" fill="#000000"></path>
   <g stroke="null" id="SvgjsG1002" clip-path="url(#56e099858c)">
    <path stroke="null" id="SvgjsPath1001" fill-rule="nonzero" d="m257.16559,255.48836c0.39667,-6.62927 -0.61979,-13.29325 -1.96845,-19.77378c-1.41808,-6.77307 -3.20308,-13.58581 -6.6987,-19.55562c-3.49561,-5.97478 -8.92002,-11.07194 -15.584,-12.89164c-6.99123,-1.89408 -14.38409,-0.0347 -21.4844,1.34866c-8.11677,1.52716 -16.45668,2.4742 -24.53873,1.09082c-8.12173,-1.38337 -16.05505,-5.35499 -20.89933,-12.01897c-4.80461,-6.66398 -5.96981,-16.23849 -1.60154,-23.22973c-4.36827,9.72327 0.68921,21.88603 9.46545,27.93023c8.81093,6.00948 20.3192,6.84744 30.80605,4.98807c9.57452,-1.67592 19.25811,-5.35499 28.68884,-3.02459c8.37461,2.04283 15.03859,8.70682 18.97053,16.38726c3.96666,7.65069 5.53349,16.31784 6.77307,24.83624c0.79829,5.7566 1.49245,11.61734 0.79829,17.40866c-0.76359,6.58961 -3.23779,12.85197 -5.78637,18.97053c-11.61734,28.25747 -24.46931,56.15299 -41.14415,81.7528c12.66851,-25.0544 25.37669,-50.1435 36.26516,-76.03585c3.78816,-9.06382 7.39286,-18.39041 7.93828,-28.1831" fill="#000000"></path>
   </g>
   <path stroke="null" id="SvgjsPath1000" fill-rule="nonzero" d="m31.52726,225.69877c8.37461,-6.29706 20.17044,-4.51703 30.25568,-7.39285c-8.81094,4.87899 -20.53737,2.62294 -28.72852,8.48368c-5.45911,3.89724 -8.15644,10.85376 -8.48368,17.59212c-0.29254,6.7334 1.45775,13.39739 3.35183,19.88288c11.06697,37.90637 27.59801,75.23261 55.05224,103.67354c6.37144,6.5896 14.67167,13.07509 23.74044,11.65206c1.74533,-0.25288 3.53032,-0.90738 4.69553,-2.22133c1.56684,-1.785 1.71063,-4.36829 1.75029,-6.6987c1.16521,-50.94675 -0.55037,-102.11167 -8.26552,-152.47333c-1.71063,-11.21573 -3.71378,-22.46616 -3.02457,-33.75625c0.40162,-6.30203 1.64121,-12.63381 0.94703,-18.93583c-0.87266,-8.08207 -4.84427,-15.65838 -5.31532,-23.81482c3.93195,8.70186 6.77307,18.0235 6.99123,27.60297c0.1438,5.96983 -0.69416,11.9446 -0.83795,17.91443c-0.21817,9.90672 1.52716,19.73908 3.09399,29.49705c8.15644,51.05583 11.25043,102.87524 9.21256,154.51121c-0.10909,2.40478 -0.21816,4.91369 -1.45775,6.99123c-1.89407,3.24275 -5.96981,4.58645 -9.68359,4.62611c-10.73973,0.18346 -19.76883,-7.68539 -26.90881,-15.69804c-25.56015,-28.69381 -41.43669,-64.85484 -51.84917,-101.85384c-1.92879,-6.80777 -3.67411,-13.83372 -3.34687,-20.939c0.36196,-7.06065 3.12871,-14.38409 8.81094,-18.64329" fill="#000000"></path>
  </g>
 </g>
</svg><style>@media (prefers-color-scheme: light) { :root { filter: none; } }
@media (prefers-color-scheme: dark) { :root { filter: invert(100%); } }
</style></svg>