<svg xmlns="http://www.w3.org/2000/svg" xmlns:xlink="http://www.w3.org/1999/xlink" width="500" zoomAndPan="magnify" viewBox="0 0 375 374.999991" height="500" preserveAspectRatio="xMidYMid meet" version="1.0"><defs><g/><linearGradient x1="0" gradientTransform="matrix(0.75, 0, 0, 0.75, 0.0000045, 0)" y1="0" x2="499.999979" gradientUnits="userSpaceOnUse" y2="0" id="5b649c7ab7"><stop stop-opacity="1" stop-color="rgb(100%, 96.899414%, 67.799377%)" offset="0"/><stop stop-opacity="1" stop-color="rgb(100%, 96.77887%, 67.915344%)" offset="0.0078125"/><stop stop-opacity="1" stop-color="rgb(100%, 96.540833%, 68.147278%)" offset="0.015625"/><stop stop-opacity="1" stop-color="rgb(100%, 96.30127%, 68.380737%)" offset="0.0234375"/><stop stop-opacity="1" stop-color="rgb(100%, 96.061707%, 68.614197%)" offset="0.03125"/><stop stop-opacity="1" stop-color="rgb(100%, 95.823669%, 68.84613%)" offset="0.0390625"/><stop stop-opacity="1" stop-color="rgb(100%, 95.584106%, 69.07959%)" offset="0.046875"/><stop stop-opacity="1" stop-color="rgb(100%, 95.344543%, 69.311523%)" offset="0.0546875"/><stop stop-opacity="1" stop-color="rgb(100%, 95.106506%, 69.544983%)" offset="0.0625"/><stop stop-opacity="1" stop-color="rgb(100%, 94.866943%, 69.778442%)" offset="0.0703125"/><stop stop-opacity="1" stop-color="rgb(100%, 94.62738%, 70.010376%)" offset="0.078125"/><stop stop-opacity="1" stop-color="rgb(100%, 94.387817%, 70.243835%)" offset="0.0859375"/><stop stop-opacity="1" stop-color="rgb(100%, 94.14978%, 70.475769%)" offset="0.09375"/><stop stop-opacity="1" stop-color="rgb(100%, 93.910217%, 70.709229%)" offset="0.101562"/><stop stop-opacity="1" stop-color="rgb(100%, 93.670654%, 70.941162%)" offset="0.109375"/><stop stop-opacity="1" stop-color="rgb(100%, 93.432617%, 71.174622%)" offset="0.117188"/><stop stop-opacity="1" stop-color="rgb(100%, 93.193054%, 71.408081%)" offset="0.125"/><stop stop-opacity="1" stop-color="rgb(100%, 92.953491%, 71.640015%)" offset="0.132812"/><stop stop-opacity="1" stop-color="rgb(100%, 92.715454%, 71.873474%)" offset="0.140625"/><stop stop-opacity="1" stop-color="rgb(100%, 92.475891%, 72.105408%)" offset="0.148437"/><stop stop-opacity="1" stop-color="rgb(100%, 92.236328%, 72.338867%)" offset="0.15625"/><stop stop-opacity="1" stop-color="rgb(100%, 91.998291%, 72.570801%)" offset="0.164062"/><stop stop-opacity="1" stop-color="rgb(100%, 91.758728%, 72.80426%)" offset="0.171875"/><stop stop-opacity="1" stop-color="rgb(100%, 91.519165%, 73.03772%)" offset="0.179687"/><stop stop-opacity="1" stop-color="rgb(100%, 91.281128%, 73.269653%)" offset="0.1875"/><stop stop-opacity="1" stop-color="rgb(100%, 91.041565%, 73.503113%)" offset="0.195312"/><stop stop-opacity="1" stop-color="rgb(100%, 90.802002%, 73.735046%)" offset="0.203125"/><stop stop-opacity="1" stop-color="rgb(100%, 90.563965%, 73.968506%)" offset="0.210938"/><stop stop-opacity="1" stop-color="rgb(100%, 90.324402%, 74.200439%)" offset="0.21875"/><stop stop-opacity="1" stop-color="rgb(100%, 90.084839%, 74.433899%)" offset="0.226562"/><stop stop-opacity="1" stop-color="rgb(100%, 89.846802%, 74.667358%)" offset="0.234375"/><stop stop-opacity="1" stop-color="rgb(100%, 89.607239%, 74.899292%)" offset="0.242188"/><stop stop-opacity="1" stop-color="rgb(100%, 89.367676%, 75.132751%)" offset="0.25"/><stop stop-opacity="1" stop-color="rgb(100%, 89.129639%, 75.364685%)" offset="0.257812"/><stop stop-opacity="1" stop-color="rgb(100%, 88.890076%, 75.598145%)" offset="0.265625"/><stop stop-opacity="1" stop-color="rgb(100%, 88.650513%, 75.830078%)" offset="0.273437"/><stop stop-opacity="1" stop-color="rgb(100%, 88.412476%, 76.063538%)" offset="0.28125"/><stop stop-opacity="1" stop-color="rgb(100%, 88.172913%, 76.296997%)" offset="0.289062"/><stop stop-opacity="1" stop-color="rgb(100%, 87.93335%, 76.528931%)" offset="0.296875"/><stop stop-opacity="1" stop-color="rgb(100%, 87.695312%, 76.76239%)" offset="0.304687"/><stop stop-opacity="1" stop-color="rgb(100%, 87.45575%, 76.994324%)" offset="0.3125"/><stop stop-opacity="1" stop-color="rgb(100%, 87.216187%, 77.227783%)" offset="0.320312"/><stop stop-opacity="1" stop-color="rgb(100%, 86.978149%, 77.461243%)" offset="0.328125"/><stop stop-opacity="1" stop-color="rgb(100%, 86.738586%, 77.693176%)" offset="0.335937"/><stop stop-opacity="1" stop-color="rgb(100%, 86.499023%, 77.926636%)" offset="0.34375"/><stop stop-opacity="1" stop-color="rgb(100%, 86.260986%, 78.158569%)" offset="0.351562"/><stop stop-opacity="1" stop-color="rgb(100%, 86.021423%, 78.392029%)" offset="0.359375"/><stop stop-opacity="1" stop-color="rgb(100%, 85.78186%, 78.623962%)" offset="0.367187"/><stop stop-opacity="1" stop-color="rgb(100%, 85.543823%, 78.857422%)" offset="0.375"/><stop stop-opacity="1" stop-color="rgb(100%, 85.30426%, 79.090881%)" offset="0.382812"/><stop stop-opacity="1" stop-color="rgb(100%, 85.064697%, 79.322815%)" offset="0.390625"/><stop stop-opacity="1" stop-color="rgb(100%, 84.82666%, 79.556274%)" offset="0.398438"/><stop stop-opacity="1" stop-color="rgb(100%, 84.587097%, 79.788208%)" offset="0.40625"/><stop stop-opacity="1" stop-color="rgb(100%, 84.347534%, 80.021667%)" offset="0.414062"/><stop stop-opacity="1" stop-color="rgb(100%, 84.109497%, 80.253601%)" offset="0.421875"/><stop stop-opacity="1" stop-color="rgb(100%, 83.869934%, 80.487061%)" offset="0.429688"/><stop stop-opacity="1" stop-color="rgb(100%, 83.630371%, 80.72052%)" offset="0.4375"/><stop stop-opacity="1" stop-color="rgb(100%, 83.392334%, 80.952454%)" offset="0.445312"/><stop stop-opacity="1" stop-color="rgb(100%, 83.152771%, 81.185913%)" offset="0.453125"/><stop stop-opacity="1" stop-color="rgb(100%, 82.913208%, 81.417847%)" offset="0.460938"/><stop stop-opacity="1" stop-color="rgb(100%, 82.675171%, 81.651306%)" offset="0.46875"/><stop stop-opacity="1" stop-color="rgb(100%, 82.435608%, 81.88324%)" offset="0.476562"/><stop stop-opacity="1" stop-color="rgb(100%, 82.196045%, 82.116699%)" offset="0.484375"/><stop stop-opacity="1" stop-color="rgb(100%, 81.958008%, 82.350159%)" offset="0.492188"/><stop stop-opacity="1" stop-color="rgb(100%, 81.718445%, 82.582092%)" offset="0.5"/><stop stop-opacity="1" stop-color="rgb(100%, 81.478882%, 82.815552%)" offset="0.507812"/><stop stop-opacity="1" stop-color="rgb(100%, 81.240845%, 83.047485%)" offset="0.515625"/><stop stop-opacity="1" stop-color="rgb(100%, 81.001282%, 83.280945%)" offset="0.523437"/><stop stop-opacity="1" stop-color="rgb(100%, 80.761719%, 83.512878%)" offset="0.53125"/><stop stop-opacity="1" stop-color="rgb(100%, 80.523682%, 83.746338%)" offset="0.539062"/><stop stop-opacity="1" stop-color="rgb(100%, 80.284119%, 83.979797%)" offset="0.546875"/><stop stop-opacity="1" stop-color="rgb(100%, 80.044556%, 84.211731%)" offset="0.554687"/><stop stop-opacity="1" stop-color="rgb(100%, 79.806519%, 84.44519%)" offset="0.5625"/><stop stop-opacity="1" stop-color="rgb(100%, 79.566956%, 84.677124%)" offset="0.570312"/><stop stop-opacity="1" stop-color="rgb(100%, 79.327393%, 84.910583%)" offset="0.578125"/><stop stop-opacity="1" stop-color="rgb(100%, 79.08783%, 85.144043%)" offset="0.585937"/><stop stop-opacity="1" stop-color="rgb(100%, 78.849792%, 85.375977%)" offset="0.59375"/><stop stop-opacity="1" stop-color="rgb(100%, 78.610229%, 85.609436%)" offset="0.601562"/><stop stop-opacity="1" stop-color="rgb(100%, 78.370667%, 85.84137%)" offset="0.609375"/><stop stop-opacity="1" stop-color="rgb(100%, 78.132629%, 86.074829%)" offset="0.617187"/><stop stop-opacity="1" stop-color="rgb(100%, 77.893066%, 86.306763%)" offset="0.625"/><stop stop-opacity="1" stop-color="rgb(100%, 77.653503%, 86.540222%)" offset="0.632812"/><stop stop-opacity="1" stop-color="rgb(100%, 77.415466%, 86.773682%)" offset="0.640625"/><stop stop-opacity="1" stop-color="rgb(100%, 77.175903%, 87.005615%)" offset="0.648437"/><stop stop-opacity="1" stop-color="rgb(100%, 76.93634%, 87.239075%)" offset="0.65625"/><stop stop-opacity="1" stop-color="rgb(100%, 76.698303%, 87.471008%)" offset="0.664062"/><stop stop-opacity="1" stop-color="rgb(100%, 76.45874%, 87.704468%)" offset="0.671875"/><stop stop-opacity="1" stop-color="rgb(100%, 76.219177%, 87.936401%)" offset="0.679687"/><stop stop-opacity="1" stop-color="rgb(100%, 75.98114%, 88.169861%)" offset="0.6875"/><stop stop-opacity="1" stop-color="rgb(100%, 75.741577%, 88.40332%)" offset="0.695312"/><stop stop-opacity="1" stop-color="rgb(100%, 75.502014%, 88.635254%)" offset="0.703125"/><stop stop-opacity="1" stop-color="rgb(100%, 75.263977%, 88.868713%)" offset="0.710937"/><stop stop-opacity="1" stop-color="rgb(100%, 75.024414%, 89.100647%)" offset="0.71875"/><stop stop-opacity="1" stop-color="rgb(100%, 74.784851%, 89.334106%)" offset="0.726562"/><stop stop-opacity="1" stop-color="rgb(100%, 74.546814%, 89.56604%)" offset="0.734375"/><stop stop-opacity="1" stop-color="rgb(100%, 74.307251%, 89.7995%)" offset="0.742187"/><stop stop-opacity="1" stop-color="rgb(100%, 74.067688%, 90.032959%)" offset="0.75"/><stop stop-opacity="1" stop-color="rgb(100%, 73.829651%, 90.264893%)" offset="0.757812"/><stop stop-opacity="1" stop-color="rgb(100%, 73.590088%, 90.498352%)" offset="0.765625"/><stop stop-opacity="1" stop-color="rgb(100%, 73.350525%, 90.730286%)" offset="0.773438"/><stop stop-opacity="1" stop-color="rgb(100%, 73.112488%, 90.963745%)" offset="0.78125"/><stop stop-opacity="1" stop-color="rgb(100%, 72.872925%, 91.197205%)" offset="0.789062"/><stop stop-opacity="1" stop-color="rgb(100%, 72.633362%, 91.429138%)" offset="0.796875"/><stop stop-opacity="1" stop-color="rgb(100%, 72.395325%, 91.662598%)" offset="0.804688"/><stop stop-opacity="1" stop-color="rgb(100%, 72.155762%, 91.894531%)" offset="0.8125"/><stop stop-opacity="1" stop-color="rgb(100%, 71.916199%, 92.127991%)" offset="0.820312"/><stop stop-opacity="1" stop-color="rgb(100%, 71.678162%, 92.359924%)" offset="0.828125"/><stop stop-opacity="1" stop-color="rgb(100%, 71.438599%, 92.593384%)" offset="0.835938"/><stop stop-opacity="1" stop-color="rgb(100%, 71.199036%, 92.826843%)" offset="0.84375"/><stop stop-opacity="1" stop-color="rgb(100%, 70.960999%, 93.058777%)" offset="0.851562"/><stop stop-opacity="1" stop-color="rgb(100%, 70.721436%, 93.292236%)" offset="0.859375"/><stop stop-opacity="1" stop-color="rgb(100%, 70.481873%, 93.52417%)" offset="0.867188"/><stop stop-opacity="1" stop-color="rgb(100%, 70.243835%, 93.757629%)" offset="0.875"/><stop stop-opacity="1" stop-color="rgb(100%, 70.004272%, 93.989563%)" offset="0.882812"/><stop stop-opacity="1" stop-color="rgb(100%, 69.764709%, 94.223022%)" offset="0.890625"/><stop stop-opacity="1" stop-color="rgb(100%, 69.526672%, 94.456482%)" offset="0.898438"/><stop stop-opacity="1" stop-color="rgb(100%, 69.287109%, 94.688416%)" offset="0.90625"/><stop stop-opacity="1" stop-color="rgb(100%, 69.047546%, 94.921875%)" offset="0.914062"/><stop stop-opacity="1" stop-color="rgb(100%, 68.809509%, 95.153809%)" offset="0.921875"/><stop stop-opacity="1" stop-color="rgb(100%, 68.569946%, 95.387268%)" offset="0.929688"/><stop stop-opacity="1" stop-color="rgb(100%, 68.330383%, 95.619202%)" offset="0.9375"/><stop stop-opacity="1" stop-color="rgb(100%, 68.092346%, 95.852661%)" offset="0.945312"/><stop stop-opacity="1" stop-color="rgb(100%, 67.852783%, 96.086121%)" offset="0.953125"/><stop stop-opacity="1" stop-color="rgb(100%, 67.61322%, 96.318054%)" offset="0.960938"/><stop stop-opacity="1" stop-color="rgb(100%, 67.375183%, 96.551514%)" offset="0.96875"/><stop stop-opacity="1" stop-color="rgb(100%, 67.13562%, 96.783447%)" offset="0.976562"/><stop stop-opacity="1" stop-color="rgb(100%, 66.896057%, 97.016907%)" offset="0.984375"/><stop stop-opacity="1" stop-color="rgb(100%, 66.65802%, 97.24884%)" offset="0.992188"/><stop stop-opacity="1" stop-color="rgb(100%, 66.418457%, 97.4823%)" offset="1"/></linearGradient><clipPath id="9973a217bb"><path d="M 35 47 L 353 47 L 353 366 L 35 366 Z M 35 47 " clip-rule="nonzero"/></clipPath><clipPath id="ad5a98660e"><path d="M 413.011719 314.402344 L 87.367188 426.039062 L -37.890625 60.664062 L 287.753906 -50.976562 Z M 413.011719 314.402344 " clip-rule="nonzero"/></clipPath><clipPath id="6959681fa2"><path d="M 413.011719 314.402344 L 87.367188 426.039062 L -37.890625 60.664062 L 287.753906 -50.976562 Z M 413.011719 314.402344 " clip-rule="nonzero"/></clipPath><clipPath id="a9e7fd6d93"><path d="M 413.011719 314.402344 L 87.367188 426.039062 L -37.890625 60.664062 L 287.753906 -50.976562 Z M 413.011719 314.402344 " clip-rule="nonzero"/></clipPath><clipPath id="ce1ff463cc"><path d="M 39 44 L 358 44 L 358 363 L 39 363 Z M 39 44 " clip-rule="nonzero"/></clipPath><clipPath id="08e0441b95"><path d="M 413.011719 314.402344 L 87.367188 426.039062 L -37.890625 60.664062 L 287.753906 -50.976562 Z M 413.011719 314.402344 " clip-rule="nonzero"/></clipPath><clipPath id="cf7fa566ac"><path d="M 413.011719 314.402344 L 87.367188 426.039062 L -37.890625 60.664062 L 287.753906 -50.976562 Z M 413.011719 314.402344 " clip-rule="nonzero"/></clipPath><clipPath id="475ceb7ce7"><path d="M 413.011719 314.402344 L 87.367188 426.039062 L -37.890625 60.664062 L 287.753906 -50.976562 Z M 413.011719 314.402344 " clip-rule="nonzero"/></clipPath><clipPath id="7943f12c0f"><path d="M 337 265 L 346 265 L 346 278 L 337 278 Z M 337 265 " clip-rule="nonzero"/></clipPath><clipPath id="831a72a98f"><path d="M 413.011719 314.402344 L 87.367188 426.039062 L -37.890625 60.664062 L 287.753906 -50.976562 Z M 413.011719 314.402344 " clip-rule="nonzero"/></clipPath><clipPath id="bdcd98c24c"><path d="M 413.011719 314.402344 L 87.367188 426.039062 L -37.890625 60.664062 L 287.753906 -50.976562 Z M 413.011719 314.402344 " clip-rule="nonzero"/></clipPath><clipPath id="31ee790698"><path d="M 413.011719 314.402344 L 87.367188 426.039062 L -37.890625 60.664062 L 287.753906 -50.976562 Z M 413.011719 314.402344 " clip-rule="nonzero"/></clipPath><clipPath id="c8e086a81e"><path d="M 353 202 L 360 202 L 360 216 L 353 216 Z M 353 202 " clip-rule="nonzero"/></clipPath><clipPath id="08a9c3acc4"><path d="M 413.011719 314.402344 L 87.367188 426.039062 L -37.890625 60.664062 L 287.753906 -50.976562 Z M 413.011719 314.402344 " clip-rule="nonzero"/></clipPath><clipPath id="32d19d2398"><path d="M 413.011719 314.402344 L 87.367188 426.039062 L -37.890625 60.664062 L 287.753906 -50.976562 Z M 413.011719 314.402344 " clip-rule="nonzero"/></clipPath><clipPath id="2b8cff9eec"><path d="M 413.011719 314.402344 L 87.367188 426.039062 L -37.890625 60.664062 L 287.753906 -50.976562 Z M 413.011719 314.402344 " clip-rule="nonzero"/></clipPath><clipPath id="e722e84c58"><path d="M 347 236 L 358 236 L 358 248 L 347 248 Z M 347 236 " clip-rule="nonzero"/></clipPath><clipPath id="e8ea9dbdc5"><path d="M 413.011719 314.402344 L 87.367188 426.039062 L -37.890625 60.664062 L 287.753906 -50.976562 Z M 413.011719 314.402344 " clip-rule="nonzero"/></clipPath><clipPath id="3b0f7574b9"><path d="M 413.011719 314.402344 L 87.367188 426.039062 L -37.890625 60.664062 L 287.753906 -50.976562 Z M 413.011719 314.402344 " clip-rule="nonzero"/></clipPath><clipPath id="38ec20ca90"><path d="M 413.011719 314.402344 L 87.367188 426.039062 L -37.890625 60.664062 L 287.753906 -50.976562 Z M 413.011719 314.402344 " clip-rule="nonzero"/></clipPath><clipPath id="db7eb962e7"><path d="M 347 252 L 353 252 L 353 258 L 347 258 Z M 347 252 " clip-rule="nonzero"/></clipPath><clipPath id="31822d0705"><path d="M 413.011719 314.402344 L 87.367188 426.039062 L -37.890625 60.664062 L 287.753906 -50.976562 Z M 413.011719 314.402344 " clip-rule="nonzero"/></clipPath><clipPath id="77991c4e6a"><path d="M 413.011719 314.402344 L 87.367188 426.039062 L -37.890625 60.664062 L 287.753906 -50.976562 Z M 413.011719 314.402344 " clip-rule="nonzero"/></clipPath><clipPath id="c0741940e4"><path d="M 413.011719 314.402344 L 87.367188 426.039062 L -37.890625 60.664062 L 287.753906 -50.976562 Z M 413.011719 314.402344 " clip-rule="nonzero"/></clipPath><clipPath id="44bfe4b879"><path d="M 353 226 L 359 226 L 359 232 L 353 232 Z M 353 226 " clip-rule="nonzero"/></clipPath><clipPath id="a64d20355a"><path d="M 413.011719 314.402344 L 87.367188 426.039062 L -37.890625 60.664062 L 287.753906 -50.976562 Z M 413.011719 314.402344 " clip-rule="nonzero"/></clipPath><clipPath id="9c641ec27d"><path d="M 413.011719 314.402344 L 87.367188 426.039062 L -37.890625 60.664062 L 287.753906 -50.976562 Z M 413.011719 314.402344 " clip-rule="nonzero"/></clipPath><clipPath id="15d4d3ed55"><path d="M 413.011719 314.402344 L 87.367188 426.039062 L -37.890625 60.664062 L 287.753906 -50.976562 Z M 413.011719 314.402344 " clip-rule="nonzero"/></clipPath><clipPath id="d36961a5ea"><path d="M 106 73 L 136 73 L 136 90 L 106 90 Z M 106 73 " clip-rule="nonzero"/></clipPath><clipPath id="bba6f0adc3"><path d="M 413.011719 314.402344 L 87.367188 426.039062 L -37.890625 60.664062 L 287.753906 -50.976562 Z M 413.011719 314.402344 " clip-rule="nonzero"/></clipPath><clipPath id="c22f0b517f"><path d="M 413.011719 314.402344 L 87.367188 426.039062 L -37.890625 60.664062 L 287.753906 -50.976562 Z M 413.011719 314.402344 " clip-rule="nonzero"/></clipPath><clipPath id="c2d5a27d00"><path d="M 413.011719 314.402344 L 87.367188 426.039062 L -37.890625 60.664062 L 287.753906 -50.976562 Z M 413.011719 314.402344 " clip-rule="nonzero"/></clipPath><clipPath id="428fa34399"><path d="M 106 73 L 114 73 L 114 109 L 106 109 Z M 106 73 " clip-rule="nonzero"/></clipPath><clipPath id="80d03db277"><path d="M 413.011719 314.402344 L 87.367188 426.039062 L -37.890625 60.664062 L 287.753906 -50.976562 Z M 413.011719 314.402344 " clip-rule="nonzero"/></clipPath><clipPath id="58fb679afc"><path d="M 413.011719 314.402344 L 87.367188 426.039062 L -37.890625 60.664062 L 287.753906 -50.976562 Z M 413.011719 314.402344 " clip-rule="nonzero"/></clipPath><clipPath id="500b9ae380"><path d="M 413.011719 314.402344 L 87.367188 426.039062 L -37.890625 60.664062 L 287.753906 -50.976562 Z M 413.011719 314.402344 " clip-rule="nonzero"/></clipPath><clipPath id="da9264e3c8"><path d="M 103 73 L 112 73 L 112 109 L 103 109 Z M 103 73 " clip-rule="nonzero"/></clipPath><clipPath id="52877ff4e9"><path d="M 413.011719 314.402344 L 87.367188 426.039062 L -37.890625 60.664062 L 287.753906 -50.976562 Z M 413.011719 314.402344 " clip-rule="nonzero"/></clipPath><clipPath id="e144a96996"><path d="M 413.011719 314.402344 L 87.367188 426.039062 L -37.890625 60.664062 L 287.753906 -50.976562 Z M 413.011719 314.402344 " clip-rule="nonzero"/></clipPath><clipPath id="5d5f824cf4"><path d="M 413.011719 314.402344 L 87.367188 426.039062 L -37.890625 60.664062 L 287.753906 -50.976562 Z M 413.011719 314.402344 " clip-rule="nonzero"/></clipPath><clipPath id="a9e25e4603"><path d="M 81 55 L 109 55 L 109 76 L 81 76 Z M 81 55 " clip-rule="nonzero"/></clipPath><clipPath id="8e049b979b"><path d="M 413.011719 314.402344 L 87.367188 426.039062 L -37.890625 60.664062 L 287.753906 -50.976562 Z M 413.011719 314.402344 " clip-rule="nonzero"/></clipPath><clipPath id="f03ace9d4d"><path d="M 413.011719 314.402344 L 87.367188 426.039062 L -37.890625 60.664062 L 287.753906 -50.976562 Z M 413.011719 314.402344 " clip-rule="nonzero"/></clipPath><clipPath id="363b2bc9bc"><path d="M 413.011719 314.402344 L 87.367188 426.039062 L -37.890625 60.664062 L 287.753906 -50.976562 Z M 413.011719 314.402344 " clip-rule="nonzero"/></clipPath><clipPath id="6966c63cd8"><path d="M 103 40 L 110 40 L 110 76 L 103 76 Z M 103 40 " clip-rule="nonzero"/></clipPath><clipPath id="12489fe488"><path d="M 413.011719 314.402344 L 87.367188 426.039062 L -37.890625 60.664062 L 287.753906 -50.976562 Z M 413.011719 314.402344 " clip-rule="nonzero"/></clipPath><clipPath id="7aeceb1f93"><path d="M 413.011719 314.402344 L 87.367188 426.039062 L -37.890625 60.664062 L 287.753906 -50.976562 Z M 413.011719 314.402344 " clip-rule="nonzero"/></clipPath><clipPath id="493023a045"><path d="M 413.011719 314.402344 L 87.367188 426.039062 L -37.890625 60.664062 L 287.753906 -50.976562 Z M 413.011719 314.402344 " clip-rule="nonzero"/></clipPath><clipPath id="758c9cb0be"><path d="M 106 39 L 114 39 L 114 76 L 106 76 Z M 106 39 " clip-rule="nonzero"/></clipPath><clipPath id="8f336039ce"><path d="M 413.011719 314.402344 L 87.367188 426.039062 L -37.890625 60.664062 L 287.753906 -50.976562 Z M 413.011719 314.402344 " clip-rule="nonzero"/></clipPath><clipPath id="b444a6bf08"><path d="M 413.011719 314.402344 L 87.367188 426.039062 L -37.890625 60.664062 L 287.753906 -50.976562 Z M 413.011719 314.402344 " clip-rule="nonzero"/></clipPath><clipPath id="c5eb3397d2"><path d="M 413.011719 314.402344 L 87.367188 426.039062 L -37.890625 60.664062 L 287.753906 -50.976562 Z M 413.011719 314.402344 " clip-rule="nonzero"/></clipPath><clipPath id="8d8e24d3d7"><path d="M 54 27 L 105 27 L 105 80 L 54 80 Z M 54 27 " clip-rule="nonzero"/></clipPath><clipPath id="2c863afc40"><path d="M 413.011719 314.402344 L 87.367188 426.039062 L -37.890625 60.664062 L 287.753906 -50.976562 Z M 413.011719 314.402344 " clip-rule="nonzero"/></clipPath><clipPath id="ee0450afc5"><path d="M 413.011719 314.402344 L 87.367188 426.039062 L -37.890625 60.664062 L 287.753906 -50.976562 Z M 413.011719 314.402344 " clip-rule="nonzero"/></clipPath><clipPath id="d73c20ada3"><path d="M 413.011719 314.402344 L 87.367188 426.039062 L -37.890625 60.664062 L 287.753906 -50.976562 Z M 413.011719 314.402344 " clip-rule="nonzero"/></clipPath><clipPath id="8de5145024"><path d="M 107 46 L 164 46 L 164 74 L 107 74 Z M 107 46 " clip-rule="nonzero"/></clipPath><clipPath id="f23f65015d"><path d="M 413.011719 314.402344 L 87.367188 426.039062 L -37.890625 60.664062 L 287.753906 -50.976562 Z M 413.011719 314.402344 " clip-rule="nonzero"/></clipPath><clipPath id="eea9e125ab"><path d="M 413.011719 314.402344 L 87.367188 426.039062 L -37.890625 60.664062 L 287.753906 -50.976562 Z M 413.011719 314.402344 " clip-rule="nonzero"/></clipPath><clipPath id="3fd2026ac4"><path d="M 413.011719 314.402344 L 87.367188 426.039062 L -37.890625 60.664062 L 287.753906 -50.976562 Z M 413.011719 314.402344 " clip-rule="nonzero"/></clipPath><clipPath id="5ac4f09717"><path d="M 127 190 L 205.5 190 L 205.5 340 L 127 340 Z M 127 190 " clip-rule="nonzero"/></clipPath></defs><rect x="-37.5" fill="url(#5b649c7ab7)" width="450" y="-37.499999" height="449.999989"/><g clip-path="url(#9973a217bb)"><g clip-path="url(#ad5a98660e)"><g clip-path="url(#6959681fa2)"><g clip-path="url(#a9e7fd6d93)"><path fill="#000000" d="M 142.984375 56.117188 C 145.449219 55.273438 147.933594 54.488281 150.433594 53.765625 C 152.9375 53.042969 155.457031 52.382812 157.988281 51.785156 C 160.523438 51.183594 163.074219 50.648438 165.632812 50.175781 C 168.195312 49.699219 170.765625 49.289062 173.347656 48.941406 C 175.929688 48.59375 178.515625 48.308594 181.113281 48.089844 C 183.707031 47.867188 186.304688 47.710938 188.910156 47.617188 C 191.511719 47.523438 194.117188 47.496094 196.71875 47.53125 C 199.324219 47.566406 201.925781 47.664062 204.527344 47.824219 C 207.125 47.988281 209.71875 48.214844 212.308594 48.503906 C 214.894531 48.792969 217.476562 49.148438 220.046875 49.5625 C 222.617188 49.980469 225.175781 50.460938 227.726562 51 C 230.273438 51.542969 232.804688 52.148438 235.324219 52.816406 C 237.839844 53.480469 240.339844 54.210938 242.824219 55 C 245.304688 55.789062 247.765625 56.636719 250.207031 57.546875 C 252.648438 58.457031 255.0625 59.425781 257.457031 60.457031 C 259.851562 61.484375 262.214844 62.570312 264.554688 63.714844 C 266.894531 64.859375 269.203125 66.0625 271.484375 67.320312 C 273.765625 68.578125 276.015625 69.894531 278.230469 71.261719 C 280.445312 72.628906 282.625 74.054688 284.773438 75.527344 C 286.917969 77.003906 289.027344 78.53125 291.097656 80.113281 C 293.167969 81.691406 295.199219 83.320312 297.191406 85 C 299.183594 86.679688 301.132812 88.40625 303.039062 90.179688 C 304.945312 91.953125 306.804688 93.773438 308.625 95.640625 C 310.441406 97.507812 312.210938 99.417969 313.933594 101.371094 C 315.65625 103.324219 317.332031 105.316406 318.957031 107.351562 C 320.582031 109.386719 322.15625 111.460938 323.679688 113.574219 C 325.203125 115.6875 326.671875 117.835938 328.089844 120.019531 C 329.507812 122.207031 330.871094 124.421875 332.183594 126.675781 C 333.492188 128.925781 334.742188 131.210938 335.941406 133.523438 C 337.136719 135.835938 338.277344 138.175781 339.359375 140.546875 C 340.441406 142.914062 341.464844 145.308594 342.429688 147.730469 C 343.394531 150.148438 344.296875 152.589844 345.140625 155.054688 C 348.730469 165.511719 351.210938 176.222656 352.578125 187.191406 C 352.601562 187.359375 352.558594 187.511719 352.457031 187.644531 C 352.355469 187.777344 352.21875 187.855469 352.050781 187.878906 C 351.882812 187.898438 351.734375 187.859375 351.597656 187.753906 C 351.464844 187.652344 351.386719 187.515625 351.367188 187.347656 C 350.011719 176.460938 347.5625 165.824219 344.007812 155.445312 C 315.765625 73.058594 225.757812 29.011719 143.375 57.253906 C 60.988281 85.496094 16.941406 175.503906 45.183594 257.886719 C 73.425781 340.269531 163.433594 384.320312 245.816406 356.078125 C 250.414062 354.507812 254.929688 352.726562 259.359375 350.738281 C 263.792969 348.75 268.121094 346.5625 272.351562 344.171875 C 276.582031 341.785156 280.691406 339.207031 284.683594 336.4375 C 288.671875 333.667969 292.527344 330.722656 296.246094 327.59375 C 299.964844 324.46875 303.53125 321.179688 306.945312 317.722656 C 310.359375 314.269531 313.605469 310.664062 316.6875 306.910156 C 319.765625 303.152344 322.667969 299.261719 325.386719 295.238281 C 328.109375 291.214844 330.636719 287.074219 332.976562 282.816406 C 333.003906 282.734375 333.050781 282.660156 333.109375 282.59375 C 333.171875 282.53125 333.246094 282.480469 333.328125 282.449219 C 333.410156 282.417969 333.496094 282.40625 333.585938 282.410156 C 333.671875 282.417969 333.757812 282.441406 333.832031 282.484375 C 333.910156 282.527344 333.976562 282.585938 334.027344 282.65625 C 334.082031 282.730469 334.117188 282.808594 334.132812 282.894531 C 334.148438 282.984375 334.144531 283.070312 334.125 283.15625 C 334.101562 283.242188 334.0625 283.320312 334.007812 283.386719 C 332.457031 286.207031 330.824219 288.976562 329.105469 291.695312 C 327.386719 294.414062 325.585938 297.078125 323.707031 299.6875 C 321.828125 302.296875 319.871094 304.847656 317.835938 307.339844 C 315.800781 309.832031 313.691406 312.257812 311.511719 314.621094 C 309.328125 316.984375 307.078125 319.28125 304.757812 321.507812 C 302.4375 323.734375 300.050781 325.890625 297.597656 327.972656 C 295.148438 330.054688 292.636719 332.058594 290.0625 333.988281 C 287.488281 335.917969 284.859375 337.769531 282.175781 339.539062 C 279.488281 341.3125 276.753906 343 273.964844 344.601562 C 271.175781 346.207031 268.34375 347.726562 265.464844 349.160156 C 262.582031 350.59375 259.664062 351.9375 256.703125 353.191406 C 253.742188 354.449219 250.742188 355.613281 247.710938 356.6875 C 244.679688 357.761719 241.617188 358.742188 238.527344 359.628906 C 235.433594 360.519531 232.320312 361.3125 229.179688 362.011719 C 226.039062 362.710938 222.882812 363.316406 219.707031 363.824219 C 216.53125 364.332031 213.34375 364.742188 210.140625 365.058594 C 206.941406 365.371094 203.730469 365.589844 200.519531 365.710938 C 197.304688 365.832031 194.089844 365.851562 190.875 365.777344 C 187.65625 365.703125 184.445312 365.53125 181.242188 365.261719 C 178.035156 364.992188 174.84375 364.625 171.660156 364.164062 C 168.476562 363.699219 165.308594 363.140625 162.160156 362.484375 C 159.011719 361.832031 155.886719 361.082031 152.78125 360.238281 C 149.679688 359.390625 146.601562 358.453125 143.554688 357.421875 C 140.507812 356.390625 137.496094 355.269531 134.519531 354.054688 C 131.539062 352.84375 128.601562 351.539062 125.699219 350.148438 C 122.800781 348.753906 119.945312 347.277344 117.136719 345.710938 C 114.324219 344.148438 111.566406 342.5 108.855469 340.765625 C 106.144531 339.035156 103.488281 337.222656 100.890625 335.328125 C 98.289062 333.433594 95.75 331.464844 93.269531 329.417969 C 90.789062 327.367188 88.371094 325.25 86.019531 323.054688 C 83.667969 320.859375 81.382812 318.597656 79.167969 316.265625 C 76.953125 313.933594 74.8125 311.535156 72.742188 309.074219 C 70.671875 306.609375 68.679688 304.085938 66.761719 301.503906 C 64.84375 298.921875 63.007812 296.28125 61.253906 293.589844 C 59.496094 290.894531 57.824219 288.148438 56.230469 285.351562 C 54.640625 282.554688 53.136719 279.714844 51.71875 276.828125 C 50.300781 273.941406 48.972656 271.011719 47.734375 268.046875 C 46.492188 265.078125 45.34375 262.074219 44.285156 259.039062 C 43.226562 256 42.261719 252.933594 41.386719 249.835938 C 40.515625 246.742188 39.738281 243.621094 39.054688 240.480469 C 38.371094 237.335938 37.785156 234.175781 37.292969 230.996094 C 36.800781 227.816406 36.40625 224.625 36.109375 221.425781 C 35.808594 218.222656 35.609375 215.011719 35.503906 211.796875 C 35.402344 208.582031 35.394531 205.367188 35.488281 202.152344 C 35.578125 198.9375 35.765625 195.726562 36.054688 192.523438 C 36.339844 189.320312 36.722656 186.128906 37.203125 182.949219 C 37.679688 179.765625 38.257812 176.605469 38.929688 173.457031 C 39.597656 170.3125 40.367188 167.191406 41.226562 164.089844 C 42.085938 160.992188 43.039062 157.921875 44.085938 154.878906 C 45.132812 151.839844 46.273438 148.832031 47.5 145.859375 C 48.730469 142.886719 50.046875 139.953125 51.457031 137.0625 C 52.863281 134.167969 54.355469 131.320312 55.933594 128.519531 C 57.515625 125.71875 59.175781 122.964844 60.921875 120.265625 C 62.671875 117.5625 64.496094 114.917969 66.402344 112.328125 C 68.308594 109.738281 70.292969 107.207031 72.355469 104.738281 C 74.414062 102.265625 76.546875 99.863281 78.753906 97.519531 C 80.960938 95.179688 83.234375 92.910156 85.578125 90.707031 C 87.921875 88.503906 90.332031 86.371094 92.804688 84.316406 C 95.277344 82.257812 97.808594 80.28125 100.402344 78.375 C 102.996094 76.472656 105.644531 74.648438 108.347656 72.90625 C 111.050781 71.164062 113.804688 69.503906 116.609375 67.929688 C 119.414062 66.355469 122.261719 64.863281 125.15625 63.460938 C 128.050781 62.058594 130.984375 60.746094 133.960938 59.519531 C 136.933594 58.296875 139.941406 57.160156 142.984375 56.117188 Z M 142.984375 56.117188 " fill-opacity="1" fill-rule="nonzero"/></g></g></g></g><g clip-path="url(#ce1ff463cc)"><g clip-path="url(#08e0441b95)"><g clip-path="url(#cf7fa566ac)"><g clip-path="url(#475ceb7ce7)"><path fill="#000000" d="M 146.691406 53.265625 C 149.6875 52.238281 152.710938 51.304688 155.765625 50.460938 C 158.820312 49.613281 161.894531 48.859375 164.992188 48.199219 C 168.089844 47.539062 171.207031 46.96875 174.335938 46.496094 C 177.46875 46.019531 180.613281 45.636719 183.765625 45.351562 C 186.921875 45.0625 190.082031 44.867188 193.25 44.769531 C 196.414062 44.667969 199.582031 44.664062 202.75 44.753906 C 205.914062 44.84375 209.074219 45.027344 212.230469 45.308594 C 215.386719 45.585938 218.53125 45.957031 221.664062 46.421875 C 224.796875 46.890625 227.914062 47.449219 231.015625 48.101562 C 234.113281 48.753906 237.191406 49.496094 240.25 50.332031 C 243.304688 51.167969 246.332031 52.09375 249.332031 53.109375 C 252.332031 54.125 255.300781 55.230469 258.234375 56.425781 C 261.167969 57.617188 264.066406 58.898438 266.921875 60.265625 C 269.78125 61.628906 272.597656 63.082031 275.367188 64.613281 C 278.140625 66.148438 280.863281 67.765625 283.539062 69.460938 C 286.214844 71.15625 288.835938 72.933594 291.40625 74.785156 C 293.972656 76.640625 296.484375 78.566406 298.941406 80.570312 C 301.394531 82.574219 303.785156 84.648438 306.117188 86.792969 C 308.445312 88.941406 310.710938 91.152344 312.910156 93.433594 C 315.109375 95.714844 317.234375 98.058594 319.292969 100.46875 C 321.351562 102.875 323.335938 105.34375 325.25 107.871094 C 327.160156 110.394531 328.992188 112.976562 330.75 115.613281 C 332.507812 118.25 334.183594 120.933594 335.78125 123.671875 C 337.378906 126.40625 338.890625 129.1875 340.324219 132.015625 C 341.753906 134.839844 343.097656 137.707031 344.359375 140.613281 C 345.617188 143.519531 346.789062 146.460938 347.875 149.4375 C 348.960938 152.414062 349.953125 155.421875 350.859375 158.457031 C 351.765625 161.492188 352.578125 164.554688 353.300781 167.636719 C 354.023438 170.722656 354.652344 173.824219 355.1875 176.945312 C 355.726562 180.070312 356.167969 183.203125 356.519531 186.351562 C 356.867188 189.5 357.125 192.65625 357.285156 195.820312 C 357.449219 198.984375 357.515625 202.148438 357.488281 205.316406 C 357.484375 205.484375 357.425781 205.625 357.308594 205.742188 C 357.1875 205.855469 357.046875 205.914062 356.878906 205.914062 C 356.714844 205.910156 356.574219 205.851562 356.457031 205.730469 C 356.339844 205.613281 356.285156 205.472656 356.285156 205.304688 C 356.371094 196.34375 355.691406 187.4375 354.253906 178.589844 C 352.816406 169.742188 350.640625 161.082031 347.722656 152.605469 C 319.480469 70.21875 229.472656 26.171875 147.089844 54.414062 C 64.707031 82.65625 20.644531 172.648438 48.886719 255.03125 C 77.128906 337.417969 167.132812 381.46875 249.523438 353.222656 C 254.304688 351.59375 259 349.738281 263.601562 347.65625 C 268.207031 345.574219 272.699219 343.277344 277.082031 340.761719 C 281.464844 338.246094 285.714844 335.527344 289.835938 332.601562 C 293.957031 329.675781 297.925781 326.558594 301.746094 323.25 C 305.566406 319.945312 309.21875 316.460938 312.699219 312.800781 C 316.183594 309.140625 319.484375 305.320312 322.597656 301.339844 C 325.714844 297.363281 328.628906 293.242188 331.347656 288.984375 C 334.066406 284.722656 336.570312 280.34375 338.867188 275.84375 C 338.941406 275.695312 339.058594 275.59375 339.214844 275.542969 C 339.375 275.492188 339.527344 275.503906 339.675781 275.582031 C 339.820312 275.65625 339.921875 275.773438 339.972656 275.929688 C 340.023438 276.089844 340.011719 276.242188 339.933594 276.386719 C 338.457031 279.273438 336.890625 282.109375 335.242188 284.898438 C 333.589844 287.6875 331.855469 290.421875 330.035156 293.105469 C 328.21875 295.785156 326.320312 298.410156 324.339844 300.976562 C 322.363281 303.542969 320.308594 306.046875 318.175781 308.488281 C 316.042969 310.929688 313.839844 313.304688 311.5625 315.609375 C 309.285156 317.917969 306.941406 320.152344 304.527344 322.316406 C 302.117188 324.480469 299.640625 326.566406 297.097656 328.578125 C 294.558594 330.589844 291.957031 332.523438 289.296875 334.375 C 286.640625 336.230469 283.925781 338 281.160156 339.6875 C 278.394531 341.375 275.578125 342.976562 272.710938 344.488281 C 269.847656 346.003906 266.941406 347.433594 263.988281 348.769531 C 261.035156 350.105469 258.046875 351.355469 255.019531 352.507812 C 251.988281 353.664062 248.929688 354.726562 245.835938 355.691406 C 242.742188 356.660156 239.625 357.535156 236.476562 358.3125 C 233.332031 359.089844 230.164062 359.769531 226.976562 360.351562 C 223.789062 360.9375 220.585938 361.421875 217.371094 361.8125 C 214.152344 362.199219 210.925781 362.488281 207.691406 362.679688 C 204.457031 362.871094 201.21875 362.964844 197.976562 362.957031 C 194.734375 362.953125 191.5 362.847656 188.265625 362.640625 C 185.03125 362.4375 181.804688 362.132812 178.589844 361.734375 C 175.371094 361.332031 172.171875 360.832031 168.988281 360.234375 C 165.800781 359.636719 162.636719 358.945312 159.496094 358.15625 C 156.351562 357.363281 153.234375 356.480469 150.144531 355.5 C 147.058594 354.519531 144 353.445312 140.976562 352.277344 C 137.953125 351.109375 134.96875 349.851562 132.023438 348.5 C 129.078125 347.152344 126.175781 345.714844 123.316406 344.1875 C 120.457031 342.660156 117.648438 341.046875 114.886719 339.347656 C 112.128906 337.648438 109.421875 335.867188 106.769531 334.003906 C 104.121094 332.140625 101.527344 330.199219 98.996094 328.175781 C 96.464844 326.152344 93.996094 324.054688 91.589844 321.882812 C 89.1875 319.710938 86.851562 317.464844 84.582031 315.148438 C 82.316406 312.835938 80.121094 310.453125 78 308 C 75.878906 305.550781 73.832031 303.039062 71.863281 300.464844 C 69.898438 297.890625 68.007812 295.257812 66.203125 292.566406 C 64.394531 289.878906 62.671875 287.136719 61.03125 284.339844 C 59.390625 281.546875 57.835938 278.703125 56.371094 275.8125 C 54.90625 272.921875 53.527344 269.988281 52.242188 267.015625 C 50.953125 264.042969 49.757812 261.03125 48.65625 257.984375 C 47.554688 254.9375 46.542969 251.859375 45.628906 248.75 C 44.714844 245.640625 43.894531 242.507812 43.171875 239.347656 C 42.445312 236.1875 41.820312 233.011719 41.292969 229.8125 C 40.761719 226.617188 40.328125 223.40625 39.996094 220.179688 C 39.664062 216.957031 39.429688 213.726562 39.292969 210.488281 C 39.15625 207.25 39.121094 204.011719 39.179688 200.773438 C 39.242188 197.53125 39.402344 194.296875 39.664062 191.066406 C 39.921875 187.835938 40.28125 184.617188 40.738281 181.40625 C 41.195312 178.199219 41.746094 175.007812 42.398438 171.832031 C 43.050781 168.65625 43.796875 165.507812 44.640625 162.378906 C 45.484375 159.246094 46.421875 156.148438 47.457031 153.074219 C 48.488281 150.003906 49.617188 146.96875 50.835938 143.964844 C 52.050781 140.960938 53.363281 137.996094 54.761719 135.074219 C 56.160156 132.152344 57.648438 129.273438 59.222656 126.441406 C 60.800781 123.609375 62.460938 120.828125 64.207031 118.097656 C 65.953125 115.367188 67.777344 112.691406 69.6875 110.074219 C 71.597656 107.453125 73.582031 104.898438 75.648438 102.398438 C 77.714844 99.902344 79.851562 97.46875 82.066406 95.101562 C 84.28125 92.734375 86.5625 90.4375 88.917969 88.210938 C 91.273438 85.984375 93.691406 83.828125 96.175781 81.75 C 98.664062 79.671875 101.210938 77.667969 103.816406 75.746094 C 106.425781 73.820312 109.089844 71.976562 111.808594 70.21875 C 114.53125 68.457031 117.300781 66.777344 120.125 65.1875 C 122.949219 63.59375 125.816406 62.089844 128.730469 60.675781 C 131.644531 59.257812 134.601562 57.929688 137.597656 56.695312 C 140.59375 55.460938 143.625 54.316406 146.691406 53.265625 Z M 146.691406 53.265625 " fill-opacity="1" fill-rule="nonzero"/></g></g></g></g><g clip-path="url(#7943f12c0f)"><g clip-path="url(#831a72a98f)"><g clip-path="url(#bdcd98c24c)"><g clip-path="url(#31ee790698)"><path fill="#000000" d="M 338.660156 277.605469 C 338.503906 277.53125 338.367188 277.417969 338.25 277.265625 C 338.132812 277.113281 338.039062 276.929688 337.964844 276.710938 C 337.894531 276.492188 337.84375 276.242188 337.820312 275.964844 C 337.792969 275.6875 337.792969 275.382812 337.816406 275.054688 C 337.835938 274.726562 337.882812 274.382812 337.953125 274.015625 C 338.023438 273.652344 338.117188 273.277344 338.230469 272.890625 C 338.347656 272.503906 338.480469 272.113281 338.636719 271.71875 C 338.792969 271.324219 338.964844 270.933594 339.152344 270.546875 C 339.34375 270.160156 339.542969 269.785156 339.761719 269.421875 C 339.976562 269.054688 340.203125 268.710938 340.4375 268.382812 C 340.671875 268.054688 340.914062 267.75 341.15625 267.472656 C 341.402344 267.191406 341.644531 266.945312 341.890625 266.726562 C 342.136719 266.503906 342.375 266.320312 342.613281 266.167969 C 342.847656 266.019531 343.074219 265.90625 343.292969 265.828125 C 343.507812 265.75 343.714844 265.710938 343.902344 265.710938 C 344.09375 265.710938 344.269531 265.75 344.425781 265.828125 C 344.582031 265.902344 344.71875 266.015625 344.835938 266.167969 C 344.953125 266.320312 345.046875 266.503906 345.121094 266.722656 C 345.195312 266.941406 345.242188 267.191406 345.269531 267.46875 C 345.292969 267.75 345.292969 268.050781 345.273438 268.378906 C 345.25 268.707031 345.203125 269.054688 345.132812 269.417969 C 345.0625 269.78125 344.96875 270.15625 344.855469 270.542969 C 344.738281 270.929688 344.605469 271.320312 344.449219 271.714844 C 344.296875 272.109375 344.125 272.5 343.933594 272.886719 C 343.746094 273.273438 343.542969 273.648438 343.324219 274.011719 C 343.109375 274.378906 342.882812 274.722656 342.648438 275.050781 C 342.414062 275.378906 342.175781 275.683594 341.929688 275.960938 C 341.683594 276.242188 341.441406 276.488281 341.195312 276.710938 C 340.949219 276.929688 340.710938 277.113281 340.472656 277.265625 C 340.238281 277.414062 340.011719 277.53125 339.792969 277.605469 C 339.578125 277.683594 339.375 277.722656 339.183594 277.722656 C 338.992188 277.722656 338.816406 277.683594 338.660156 277.605469 Z M 338.660156 277.605469 " fill-opacity="1" fill-rule="nonzero"/></g></g></g></g><g clip-path="url(#c8e086a81e)"><g clip-path="url(#08a9c3acc4)"><g clip-path="url(#32d19d2398)"><g clip-path="url(#2b8cff9eec)"><path fill="#000000" d="M 356.300781 215.386719 C 356.125 215.382812 355.953125 215.332031 355.785156 215.242188 C 355.621094 215.148438 355.457031 215.019531 355.304688 214.847656 C 355.148438 214.675781 355.003906 214.46875 354.871094 214.222656 C 354.734375 213.976562 354.609375 213.699219 354.5 213.390625 C 354.390625 213.082031 354.292969 212.746094 354.210938 212.382812 C 354.128906 212.023438 354.0625 211.640625 354.011719 211.242188 C 353.960938 210.839844 353.929688 210.429688 353.914062 210.003906 C 353.894531 209.582031 353.898438 209.15625 353.914062 208.726562 C 353.933594 208.296875 353.96875 207.871094 354.019531 207.449219 C 354.070312 207.027344 354.136719 206.621094 354.222656 206.226562 C 354.304688 205.832031 354.402344 205.457031 354.515625 205.105469 C 354.625 204.75 354.75 204.425781 354.886719 204.125 C 355.023438 203.824219 355.167969 203.558594 355.324219 203.328125 C 355.480469 203.09375 355.640625 202.898438 355.808594 202.742188 C 355.976562 202.582031 356.148438 202.464844 356.324219 202.386719 C 356.496094 202.3125 356.671875 202.277344 356.847656 202.285156 C 357.019531 202.292969 357.191406 202.339844 357.359375 202.433594 C 357.527344 202.523438 357.6875 202.652344 357.84375 202.824219 C 358 202.996094 358.144531 203.203125 358.277344 203.449219 C 358.414062 203.695312 358.535156 203.972656 358.648438 204.28125 C 358.757812 204.589844 358.855469 204.925781 358.9375 205.289062 C 359.019531 205.648438 359.085938 206.03125 359.136719 206.429688 C 359.183594 206.832031 359.21875 207.242188 359.234375 207.667969 C 359.25 208.089844 359.25 208.515625 359.234375 208.945312 C 359.214844 209.378906 359.179688 209.800781 359.128906 210.222656 C 359.078125 210.644531 359.007812 211.050781 358.925781 211.445312 C 358.84375 211.839844 358.746094 212.214844 358.632812 212.570312 C 358.519531 212.921875 358.398438 213.25 358.261719 213.546875 C 358.125 213.847656 357.980469 214.113281 357.824219 214.34375 C 357.667969 214.578125 357.507812 214.773438 357.339844 214.933594 C 357.171875 215.089844 357 215.207031 356.824219 215.285156 C 356.648438 215.359375 356.476562 215.394531 356.300781 215.386719 Z M 356.300781 215.386719 " fill-opacity="1" fill-rule="nonzero"/></g></g></g></g><g clip-path="url(#e722e84c58)"><g clip-path="url(#e8ea9dbdc5)"><g clip-path="url(#3b0f7574b9)"><g clip-path="url(#38ec20ca90)"><path fill="#000000" d="M 347.988281 243.578125 C 347.878906 243.261719 347.804688 242.941406 347.757812 242.609375 C 347.714844 242.277344 347.703125 241.945312 347.722656 241.613281 C 347.746094 241.28125 347.796875 240.953125 347.882812 240.628906 C 347.96875 240.308594 348.085938 239.996094 348.230469 239.695312 C 348.378906 239.394531 348.554688 239.113281 348.753906 238.847656 C 348.957031 238.582031 349.183594 238.339844 349.433594 238.117188 C 349.683594 237.898438 349.953125 237.703125 350.242188 237.535156 C 350.53125 237.367188 350.832031 237.230469 351.148438 237.121094 C 351.464844 237.011719 351.789062 236.9375 352.117188 236.890625 C 352.449219 236.847656 352.78125 236.835938 353.113281 236.855469 C 353.449219 236.878906 353.773438 236.929688 354.097656 237.015625 C 354.421875 237.101562 354.730469 237.21875 355.03125 237.363281 C 355.332031 237.511719 355.613281 237.6875 355.878906 237.886719 C 356.144531 238.089844 356.386719 238.316406 356.609375 238.566406 C 356.828125 238.816406 357.023438 239.085938 357.191406 239.375 C 357.359375 239.664062 357.496094 239.964844 357.605469 240.28125 C 357.714844 240.597656 357.789062 240.921875 357.835938 241.25 C 357.878906 241.582031 357.890625 241.914062 357.871094 242.246094 C 357.847656 242.582031 357.796875 242.910156 357.710938 243.230469 C 357.625 243.554688 357.507812 243.863281 357.363281 244.164062 C 357.214844 244.464844 357.042969 244.746094 356.839844 245.011719 C 356.636719 245.277344 356.410156 245.519531 356.160156 245.742188 C 355.910156 245.960938 355.640625 246.15625 355.351562 246.324219 C 355.0625 246.492188 354.761719 246.628906 354.445312 246.738281 C 354.128906 246.847656 353.804688 246.921875 353.476562 246.96875 C 353.144531 247.011719 352.8125 247.023438 352.480469 247.003906 C 352.148438 246.984375 351.820312 246.929688 351.496094 246.84375 C 351.171875 246.757812 350.863281 246.640625 350.5625 246.496094 C 350.261719 246.347656 349.980469 246.175781 349.714844 245.972656 C 349.449219 245.769531 349.207031 245.542969 348.984375 245.292969 C 348.765625 245.042969 348.570312 244.773438 348.402344 244.484375 C 348.234375 244.195312 348.097656 243.894531 347.988281 243.578125 Z M 347.988281 243.578125 " fill-opacity="1" fill-rule="nonzero"/></g></g></g></g><g clip-path="url(#db7eb962e7)"><g clip-path="url(#31822d0705)"><g clip-path="url(#77991c4e6a)"><g clip-path="url(#c0741940e4)"><path fill="#000000" d="M 347.441406 255.570312 C 347.332031 255.25 347.289062 254.921875 347.308594 254.585938 C 347.332031 254.25 347.414062 253.929688 347.5625 253.625 C 347.710938 253.320312 347.914062 253.058594 348.167969 252.835938 C 348.421875 252.609375 348.707031 252.445312 349.027344 252.335938 C 349.347656 252.226562 349.675781 252.179688 350.011719 252.203125 C 350.347656 252.222656 350.667969 252.308594 350.972656 252.457031 C 351.277344 252.605469 351.539062 252.804688 351.761719 253.058594 C 351.984375 253.3125 352.152344 253.597656 352.261719 253.917969 C 352.371094 254.238281 352.417969 254.566406 352.394531 254.902344 C 352.375 255.242188 352.289062 255.5625 352.140625 255.863281 C 351.992188 256.167969 351.792969 256.433594 351.539062 256.65625 C 351.285156 256.878906 351 257.046875 350.679688 257.15625 C 350.359375 257.265625 350.03125 257.308594 349.695312 257.289062 C 349.355469 257.265625 349.035156 257.179688 348.734375 257.03125 C 348.429688 256.882812 348.164062 256.683594 347.941406 256.429688 C 347.71875 256.175781 347.550781 255.890625 347.441406 255.570312 Z M 347.441406 255.570312 " fill-opacity="1" fill-rule="nonzero"/></g></g></g></g><g clip-path="url(#44bfe4b879)"><g clip-path="url(#a64d20355a)"><g clip-path="url(#9c641ec27d)"><g clip-path="url(#15d4d3ed55)"><path fill="#000000" d="M 353.308594 229.949219 C 353.199219 229.628906 353.15625 229.300781 353.175781 228.964844 C 353.199219 228.628906 353.28125 228.308594 353.429688 228.003906 C 353.578125 227.699219 353.78125 227.4375 354.035156 227.210938 C 354.285156 226.988281 354.574219 226.824219 354.894531 226.714844 C 355.210938 226.605469 355.539062 226.558594 355.878906 226.582031 C 356.214844 226.601562 356.535156 226.6875 356.839844 226.835938 C 357.140625 226.984375 357.40625 227.183594 357.628906 227.4375 C 357.851562 227.691406 358.019531 227.976562 358.128906 228.296875 C 358.238281 228.617188 358.28125 228.945312 358.261719 229.28125 C 358.242188 229.621094 358.15625 229.941406 358.007812 230.242188 C 357.859375 230.546875 357.65625 230.808594 357.40625 231.035156 C 357.152344 231.257812 356.863281 231.421875 356.546875 231.53125 C 356.226562 231.640625 355.898438 231.6875 355.558594 231.664062 C 355.222656 231.644531 354.902344 231.558594 354.597656 231.410156 C 354.296875 231.261719 354.03125 231.0625 353.808594 230.808594 C 353.585938 230.554688 353.417969 230.269531 353.308594 229.949219 Z M 353.308594 229.949219 " fill-opacity="1" fill-rule="nonzero"/></g></g></g></g><g clip-path="url(#d36961a5ea)"><g clip-path="url(#bba6f0adc3)"><g clip-path="url(#c22f0b517f)"><g clip-path="url(#c2d5a27d00)"><path fill="#000000" d="M 107.078125 73.5 L 107.171875 73.464844 C 118.140625 71.722656 130.269531 78.125 135.394531 88.351562 C 135.46875 88.5 135.480469 88.65625 135.425781 88.8125 C 135.375 88.972656 135.273438 89.089844 135.125 89.164062 C 134.972656 89.238281 134.820312 89.25 134.660156 89.195312 C 134.503906 89.144531 134.386719 89.042969 134.3125 88.894531 C 129.410156 79.109375 117.824219 73 107.351562 74.652344 C 107.191406 74.691406 107.039062 74.667969 106.898438 74.582031 C 106.757812 74.496094 106.664062 74.375 106.625 74.214844 C 106.585938 74.054688 106.605469 73.902344 106.691406 73.761719 C 106.777344 73.617188 106.898438 73.527344 107.058594 73.484375 Z M 107.078125 73.5 " fill-opacity="1" fill-rule="nonzero"/><path fill="#000000" d="M 107.152344 73.625 C 107.378906 73.546875 107.578125 73.589844 107.753906 73.753906 C 114.746094 80.230469 124.667969 85.535156 134.972656 88.292969 C 135.125 88.34375 135.238281 88.4375 135.3125 88.578125 C 135.390625 88.714844 135.40625 88.863281 135.367188 89.015625 C 135.328125 89.171875 135.238281 89.289062 135.101562 89.371094 C 134.96875 89.457031 134.824219 89.480469 134.667969 89.449219 C 124.195312 86.632812 114.070312 81.238281 106.941406 74.636719 C 106.816406 74.523438 106.753906 74.382812 106.746094 74.21875 C 106.738281 74.050781 106.789062 73.910156 106.902344 73.785156 C 106.972656 73.710938 107.054688 73.65625 107.152344 73.625 Z M 107.152344 73.625 " fill-opacity="1" fill-rule="nonzero"/></g></g></g></g><g clip-path="url(#428fa34399)"><g clip-path="url(#80d03db277)"><g clip-path="url(#58fb679afc)"><g clip-path="url(#500b9ae380)"><path fill="#000000" d="M 107.078125 73.5 C 107.214844 73.449219 107.355469 73.449219 107.492188 73.5 C 107.628906 73.554688 107.734375 73.644531 107.804688 73.773438 C 113.863281 84.757812 115.296875 97.105469 111.742188 107.65625 C 111.6875 107.8125 111.585938 107.929688 111.4375 108.003906 C 111.289062 108.074219 111.136719 108.085938 110.980469 108.035156 C 110.824219 107.980469 110.707031 107.878906 110.632812 107.730469 C 110.5625 107.585938 110.550781 107.433594 110.601562 107.273438 C 114.0625 97.035156 112.652344 85.027344 106.761719 74.371094 C 106.679688 74.226562 106.664062 74.074219 106.710938 73.914062 C 106.757812 73.753906 106.855469 73.636719 107 73.554688 Z M 107.078125 73.5 " fill-opacity="1" fill-rule="nonzero"/></g></g></g></g><g clip-path="url(#da9264e3c8)"><g clip-path="url(#52877ff4e9)"><g clip-path="url(#e144a96996)"><g clip-path="url(#5d5f824cf4)"><path fill="#000000" d="M 107.078125 73.5 C 107.339844 73.410156 107.554688 73.472656 107.730469 73.683594 C 107.90625 73.894531 107.925781 74.121094 107.792969 74.363281 C 102.117188 84.277344 105.742188 98.164062 111.859375 107.523438 C 111.949219 107.660156 111.976562 107.8125 111.941406 107.972656 C 111.90625 108.132812 111.820312 108.257812 111.683594 108.347656 C 111.542969 108.4375 111.394531 108.46875 111.234375 108.433594 C 111.070312 108.398438 110.945312 108.316406 110.855469 108.175781 C 104.539062 98.511719 100.824219 84.128906 106.75 73.769531 C 106.824219 73.636719 106.933594 73.546875 107.078125 73.5 Z M 107.078125 73.5 " fill-opacity="1" fill-rule="nonzero"/></g></g></g></g><g clip-path="url(#a9e25e4603)"><g clip-path="url(#8e049b979b)"><g clip-path="url(#f03ace9d4d)"><g clip-path="url(#363b2bc9bc)"><path fill="#000000" d="M 82.140625 55.433594 C 82.296875 55.378906 82.449219 55.390625 82.597656 55.460938 C 82.746094 55.535156 82.847656 55.648438 82.902344 55.804688 C 86.285156 66.210938 96.835938 73.992188 107.441406 73.914062 C 107.605469 73.910156 107.75 73.96875 107.867188 74.085938 C 107.984375 74.203125 108.042969 74.34375 108.042969 74.511719 C 108.046875 74.675781 107.988281 74.816406 107.871094 74.9375 C 107.753906 75.054688 107.613281 75.113281 107.445312 75.113281 C 96.339844 75.195312 85.300781 67.054688 81.761719 56.175781 C 81.714844 56.023438 81.726562 55.871094 81.800781 55.726562 C 81.871094 55.585938 81.984375 55.484375 82.140625 55.433594 Z M 82.140625 55.433594 " fill-opacity="1" fill-rule="nonzero"/><path fill="#000000" d="M 82.222656 55.195312 C 82.367188 55.144531 82.511719 55.152344 82.652344 55.210938 C 92.609375 59.554688 101.789062 66.394531 107.859375 74.003906 C 107.972656 74.132812 108.027344 74.28125 108.011719 74.453125 C 107.996094 74.628906 107.921875 74.765625 107.789062 74.875 C 107.652344 74.984375 107.5 75.023438 107.328125 75 C 107.15625 74.972656 107.019531 74.890625 106.921875 74.75 C 100.972656 67.285156 91.929688 60.585938 82.175781 56.3125 C 81.921875 56.207031 81.800781 56.011719 81.8125 55.738281 C 81.824219 55.464844 81.960938 55.28125 82.222656 55.195312 Z M 82.222656 55.195312 " fill-opacity="1" fill-rule="nonzero"/></g></g></g></g><g clip-path="url(#6966c63cd8)"><g clip-path="url(#12489fe488)"><g clip-path="url(#7aeceb1f93)"><g clip-path="url(#493023a045)"><path fill="#000000" d="M 108.394531 40.359375 C 108.652344 40.273438 108.867188 40.332031 109.042969 40.539062 C 109.21875 40.742188 109.246094 40.960938 109.121094 41.203125 C 104.175781 50.804688 103.777344 62.878906 108.011719 74.324219 C 108.066406 74.480469 108.058594 74.632812 107.984375 74.78125 C 107.910156 74.929688 107.796875 75.03125 107.640625 75.085938 C 107.484375 75.140625 107.332031 75.128906 107.183594 75.058594 C 107.035156 74.984375 106.933594 74.871094 106.878906 74.714844 C 102.53125 62.953125 102.953125 50.527344 108.050781 40.625 C 108.132812 40.492188 108.246094 40.402344 108.394531 40.359375 Z M 108.394531 40.359375 " fill-opacity="1" fill-rule="nonzero"/></g></g></g></g><g clip-path="url(#758c9cb0be)"><g clip-path="url(#8f336039ce)"><g clip-path="url(#b444a6bf08)"><g clip-path="url(#c5eb3397d2)"><path fill="#000000" d="M 108.265625 39.957031 C 108.410156 39.90625 108.554688 39.910156 108.695312 39.972656 C 108.839844 40.03125 108.941406 40.132812 109.007812 40.273438 C 113.808594 50.765625 115.332031 65.546875 107.925781 74.90625 C 107.824219 75.035156 107.691406 75.109375 107.527344 75.128906 C 107.363281 75.148438 107.214844 75.105469 107.085938 75.003906 C 106.957031 74.902344 106.882812 74.765625 106.863281 74.601562 C 106.84375 74.4375 106.886719 74.292969 106.988281 74.164062 C 114.058594 65.210938 112.566406 50.933594 107.917969 40.773438 C 107.847656 40.621094 107.839844 40.46875 107.898438 40.3125 C 107.957031 40.15625 108.0625 40.042969 108.214844 39.972656 Z M 108.265625 39.957031 " fill-opacity="1" fill-rule="nonzero"/></g></g></g></g><g clip-path="url(#8d8e24d3d7)"><g clip-path="url(#2c863afc40)"><g clip-path="url(#ee0450afc5)"><g clip-path="url(#d73c20ada3)"><path fill="#000000" d="M 58.144531 27.78125 C 59.8125 27.246094 61.476562 27.265625 63.132812 27.84375 C 66.894531 29.089844 69.84375 32.785156 71.015625 37.695312 C 71.75 40.765625 71.792969 43.957031 71.828125 47.035156 C 71.84375 48.113281 71.851562 49.234375 71.894531 50.320312 C 72.292969 60.226562 75.558594 68.398438 81.054688 73.34375 C 87.035156 78.710938 97.582031 80.351562 103.738281 74.222656 C 103.855469 74.105469 104 74.046875 104.164062 74.050781 C 104.332031 74.050781 104.472656 74.109375 104.589844 74.230469 C 104.707031 74.347656 104.761719 74.488281 104.761719 74.65625 C 104.757812 74.820312 104.699219 74.960938 104.582031 75.074219 C 97.96875 81.664062 86.617188 79.96875 80.253906 74.234375 C 74.503906 69.078125 71.113281 60.601562 70.703125 50.367188 C 70.660156 49.261719 70.640625 48.140625 70.628906 47.054688 C 70.589844 44.039062 70.554688 40.914062 69.847656 37.96875 C 68.773438 33.46875 66.121094 30.109375 62.757812 28.992188 C 61.914062 28.679688 61.042969 28.554688 60.144531 28.621094 C 59.246094 28.683594 58.398438 28.929688 57.605469 29.359375 C 57.238281 29.570312 56.914062 29.835938 56.625 30.148438 C 56.339844 30.460938 56.105469 30.8125 55.929688 31.195312 C 55.75 31.582031 55.632812 31.984375 55.578125 32.40625 C 55.519531 32.828125 55.53125 33.246094 55.601562 33.664062 C 55.839844 34.558594 56.371094 35.222656 57.191406 35.652344 C 57.859375 36.054688 58.5625 36.128906 59.296875 35.882812 C 59.675781 35.71875 59.992188 35.476562 60.242188 35.152344 C 60.496094 34.828125 60.652344 34.464844 60.71875 34.058594 C 60.804688 33.71875 60.796875 33.378906 60.703125 33.042969 C 60.609375 32.707031 60.433594 32.414062 60.183594 32.167969 C 60.0625 32.058594 59.996094 31.921875 59.984375 31.757812 C 59.972656 31.59375 60.023438 31.449219 60.132812 31.324219 C 60.238281 31.199219 60.378906 31.132812 60.542969 31.121094 C 60.710938 31.109375 60.855469 31.160156 60.980469 31.269531 C 61.390625 31.65625 61.679688 32.117188 61.84375 32.65625 C 62.007812 33.195312 62.027344 33.738281 61.898438 34.289062 C 61.796875 34.910156 61.546875 35.464844 61.148438 35.953125 C 60.75 36.441406 60.257812 36.796875 59.667969 37.023438 L 59.628906 37.035156 C 58.570312 37.378906 57.558594 37.273438 56.59375 36.722656 C 56.054688 36.4375 55.589844 36.058594 55.207031 35.582031 C 54.824219 35.105469 54.550781 34.574219 54.390625 33.984375 C 54.285156 33.441406 54.265625 32.894531 54.328125 32.347656 C 54.394531 31.796875 54.539062 31.269531 54.769531 30.769531 C 55 30.265625 55.296875 29.808594 55.667969 29.398438 C 56.039062 28.988281 56.464844 28.640625 56.941406 28.363281 C 57.320312 28.128906 57.722656 27.933594 58.144531 27.78125 Z M 58.144531 27.78125 " fill-opacity="1" fill-rule="nonzero"/></g></g></g></g><g clip-path="url(#8de5145024)"><g clip-path="url(#f23f65015d)"><g clip-path="url(#eea9e125ab)"><g clip-path="url(#3fd2026ac4)"><path fill="#000000" d="M 143.140625 47.769531 C 143.78125 47.550781 144.429688 47.367188 145.09375 47.222656 C 146.46875 46.921875 147.859375 46.773438 149.265625 46.785156 C 150.671875 46.792969 152.0625 46.960938 153.433594 47.28125 C 154.804688 47.601562 156.121094 48.066406 157.386719 48.679688 C 158.652344 49.296875 159.835938 50.042969 160.9375 50.921875 C 163.0625 52.632812 164.640625 55.355469 163.425781 57.671875 C 162.828125 58.769531 161.671875 59.539062 159.988281 59.972656 C 154.363281 61.398438 151.714844 60.027344 150.476562 58.621094 C 148.605469 56.492188 148.90625 53.296875 149.777344 51.035156 C 149.839844 50.878906 149.949219 50.773438 150.097656 50.707031 C 150.25 50.644531 150.40625 50.640625 150.558594 50.703125 C 150.710938 50.765625 150.820312 50.871094 150.886719 51.023438 C 150.953125 51.175781 150.953125 51.328125 150.894531 51.480469 C 150.15625 53.335938 149.835938 56.117188 151.351562 57.839844 C 152.867188 59.5625 155.679688 59.835938 159.65625 58.792969 C 160.589844 58.554688 161.796875 58.058594 162.332031 57.082031 C 163.234375 55.410156 161.886719 53.25 160.152344 51.855469 C 159.640625 51.441406 159.109375 51.058594 158.554688 50.707031 C 158 50.351562 157.425781 50.03125 156.835938 49.746094 C 156.246094 49.457031 155.640625 49.203125 155.019531 48.980469 C 154.402344 48.761719 153.769531 48.574219 153.128906 48.425781 C 152.492188 48.277344 151.84375 48.164062 151.191406 48.085938 C 150.539062 48.007812 149.882812 47.96875 149.226562 47.964844 C 148.566406 47.960938 147.910156 47.996094 147.257812 48.066406 C 146.605469 48.136719 145.957031 48.242188 145.316406 48.386719 C 144.671875 48.527344 144.042969 48.707031 143.417969 48.921875 C 142.796875 49.136719 142.191406 49.382812 141.597656 49.667969 C 141.003906 49.949219 140.425781 50.265625 139.867188 50.613281 C 139.308594 50.960938 138.773438 51.335938 138.257812 51.746094 C 137.742188 52.152344 137.25 52.585938 136.785156 53.050781 C 136.316406 53.511719 135.875 54 135.464844 54.511719 C 135.050781 55.027344 134.671875 55.558594 134.320312 56.113281 C 133.964844 56.671875 133.644531 57.242188 133.359375 57.835938 C 132.828125 58.929688 132.390625 60.117188 131.996094 61.253906 C 131.359375 63.269531 130.460938 65.15625 129.300781 66.917969 C 128.199219 68.429688 126.867188 69.695312 125.296875 70.710938 C 123.726562 71.722656 122.027344 72.421875 120.195312 72.800781 C 115.625 73.835938 113.871094 73.96875 108.460938 73.6875 C 108.292969 73.679688 108.15625 73.613281 108.046875 73.492188 C 107.933594 73.367188 107.882812 73.222656 107.894531 73.058594 C 107.902344 72.890625 107.96875 72.753906 108.089844 72.644531 C 108.214844 72.53125 108.359375 72.480469 108.523438 72.488281 C 113.8125 72.753906 115.539062 72.617188 119.957031 71.625 C 121.648438 71.277344 123.21875 70.636719 124.667969 69.703125 C 126.117188 68.765625 127.351562 67.601562 128.363281 66.207031 C 129.464844 64.535156 130.308594 62.746094 130.902344 60.835938 C 131.324219 59.632812 131.804688 58.453125 132.34375 57.296875 C 133.445312 55.058594 134.933594 53.117188 136.800781 51.46875 C 138.671875 49.816406 140.785156 48.585938 143.140625 47.769531 Z M 143.140625 47.769531 " fill-opacity="1" fill-rule="nonzero"/></g></g></g></g><path fill="#000000" d="M 13.367188 166.820312 C 7.714844 172.328125 2.984375 179.355469 2.496094 187.21875 C 1.980469 195.796875 6.683594 204.117188 13.367188 209.480469 C 20.050781 214.84375 28.511719 217.597656 36.945312 219.089844 C 27.765625 218.660156 18.472656 215.847656 11.445312 209.882812 C 4.417969 203.945312 0 194.621094 1.148438 185.496094 C 2.035156 178.296875 6.195312 171.871094 11.1875 166.621094 C 28.339844 148.632812 54.386719 143.039062 76.386719 131.503906 C 106.765625 115.609375 129.3125 88.472656 153.492188 64.171875 C 155.988281 61.703125 158.628906 59.152344 161.984375 58.117188 C 168.609375 56.054688 175.640625 60.671875 179.625 66.351562 C 189.234375 79.894531 187.601562 98.226562 184.042969 114.433594 C 181.089844 127.832031 177.042969 141.117188 170.273438 153.019531 C 163.503906 164.957031 153.78125 175.484375 141.503906 181.59375 C 163.820312 168.253906 175.554688 142.464844 181.75 117.21875 C 184.101562 107.664062 185.851562 97.765625 184.816406 87.957031 C 183.8125 78.171875 179.710938 68.359375 172.082031 62.105469 C 170.820312 61.074219 169.414062 60.128906 167.835938 59.695312 C 162.960938 58.40625 158.371094 62.335938 154.898438 65.980469 C 130.460938 91.425781 106.738281 118.910156 75.183594 134.71875 C 54.300781 145.1875 30.089844 150.523438 13.367188 166.820312 " fill-opacity="1" fill-rule="nonzero"/><path fill="#000000" d="M 110.410156 183.429688 C 108.886719 185.066406 107.054688 186.445312 104.929688 187.1875 C 102.835938 187.90625 100.457031 187.933594 98.417969 186.988281 C 97.328125 186.472656 96.382812 185.699219 95.519531 184.867188 C 94.546875 183.917969 93.628906 182.855469 92.855469 181.710938 C 93.773438 181.050781 94.949219 182.054688 95.78125 182.828125 C 97.816406 184.664062 100.714844 185.382812 103.410156 185.007812 C 106.136719 184.664062 108.628906 183.316406 110.722656 181.566406 C 111.296875 181.996094 110.898438 182.914062 110.410156 183.429688 " fill-opacity="1" fill-rule="nonzero"/><path fill="#000000" d="M 95.894531 176.6875 C 94.289062 178.125 92.164062 178.925781 90.015625 178.898438 C 89.441406 178.898438 88.664062 178.496094 88.894531 177.980469 C 91.132812 177.722656 93.253906 176.6875 94.832031 175.113281 C 95.636719 174.28125 96.324219 173.304688 97.355469 172.757812 C 98.359375 172.183594 99.851562 172.269531 100.425781 173.273438 C 100.855469 173.992188 101.917969 174.105469 102.722656 173.820312 C 103.523438 173.535156 104.242188 172.988281 105.042969 172.757812 C 106.105469 172.445312 107.28125 172.671875 108.144531 173.363281 C 109.433594 174.394531 110.007812 176.375 111.585938 176.832031 C 112.875 177.207031 114.625 176.488281 115.398438 177.605469 C 113.476562 178.839844 110.753906 178.699219 108.976562 177.207031 C 108.34375 176.6875 107.828125 176 107.109375 175.542969 C 106.394531 175.113281 105.390625 174.96875 104.785156 175.542969 C 103.324219 176.917969 100.742188 176.917969 99.277344 175.542969 C 98.792969 175.082031 98.015625 175.140625 97.414062 175.425781 C 96.839844 175.742188 96.382812 176.230469 95.894531 176.6875 " fill-opacity="1" fill-rule="nonzero"/><path fill="#000000" d="M 44.777344 117.648438 C 44.230469 114.835938 44.863281 111.9375 45.636719 109.183594 C 51.921875 87.46875 70.363281 69.679688 92.308594 64.171875 C 98.417969 62.625 104.84375 61.992188 111.039062 63.082031 C 117.234375 64.171875 123.230469 67.097656 127.390625 71.859375 C 121.25 67.128906 113.59375 64.429688 105.847656 64.34375 C 101.546875 64.285156 97.242188 65.03125 93.082031 66.152344 C 69.1875 72.636719 49.710938 93.378906 44.777344 117.648438 " fill-opacity="1" fill-rule="nonzero"/><path fill="#000000" d="M 86.859375 192.984375 C 90.671875 195.910156 94.777344 198.722656 99.480469 199.582031 C 104.757812 200.53125 110.238281 198.867188 114.683594 195.910156 C 119.128906 192.925781 122.628906 188.765625 125.726562 184.40625 C 134.792969 171.496094 140.527344 156.207031 142.164062 140.511719 C 142.878906 133.542969 142.824219 126.542969 142.765625 119.542969 C 146.667969 143.46875 140.957031 169.144531 125.839844 188.078125 C 120.332031 194.964844 112.875 201.277344 104.070312 201.535156 C 96.925781 201.761719 90.1875 197.890625 85.136719 192.839844 C 85.425781 192.265625 86.34375 192.582031 86.859375 192.984375 " fill-opacity="1" fill-rule="nonzero"/><g clip-path="url(#5ac4f09717)"><path fill="#000000" d="M 202.804688 257.621094 C 203.117188 252.398438 202.316406 247.148438 201.253906 242.042969 C 200.136719 236.707031 198.730469 231.339844 195.976562 226.636719 C 193.222656 221.929688 188.949219 217.914062 183.699219 216.480469 C 178.191406 214.988281 172.367188 216.453125 166.773438 217.542969 C 160.378906 218.746094 153.808594 219.492188 147.441406 218.402344 C 141.042969 217.3125 134.792969 214.183594 130.976562 208.933594 C 127.191406 203.683594 126.273438 196.140625 129.714844 190.632812 C 126.273438 198.292969 130.257812 207.875 137.171875 212.636719 C 144.113281 217.371094 153.179688 218.03125 161.441406 216.566406 C 168.984375 215.246094 176.613281 212.347656 184.042969 214.183594 C 190.640625 215.792969 195.890625 221.042969 198.988281 227.09375 C 202.113281 233.121094 203.347656 239.949219 204.324219 246.660156 C 204.953125 251.195312 205.5 255.8125 204.953125 260.375 C 204.351562 265.566406 202.402344 270.5 200.394531 275.320312 C 191.242188 297.582031 181.117188 319.558594 167.980469 339.726562 C 177.960938 319.988281 187.972656 300.222656 196.550781 279.824219 C 199.535156 272.683594 202.375 265.335938 202.804688 257.621094 " fill-opacity="1" fill-rule="nonzero"/></g><path fill="#000000" d="M 25.042969 234.152344 C 31.640625 229.191406 40.933594 230.59375 48.878906 228.328125 C 41.9375 232.171875 32.699219 230.394531 26.246094 235.011719 C 21.945312 238.082031 19.820312 243.5625 19.5625 248.871094 C 19.332031 254.175781 20.710938 259.425781 22.203125 264.535156 C 30.921875 294.398438 43.945312 323.804688 65.574219 346.210938 C 70.59375 351.402344 77.132812 356.511719 84.277344 355.390625 C 85.652344 355.191406 87.058594 354.675781 87.976562 353.640625 C 89.210938 352.234375 89.324219 350.199219 89.355469 348.363281 C 90.273438 308.226562 88.921875 267.917969 82.84375 228.242188 C 81.496094 219.40625 79.917969 210.542969 80.460938 201.648438 C 80.777344 196.683594 81.753906 191.695312 81.207031 186.730469 C 80.519531 180.363281 77.390625 174.394531 77.019531 167.96875 C 80.117188 174.824219 82.355469 182.167969 82.527344 189.714844 C 82.640625 194.417969 81.980469 199.125 81.867188 203.828125 C 81.695312 211.632812 83.070312 219.378906 84.304688 227.066406 C 90.730469 267.289062 93.167969 308.113281 91.5625 348.792969 C 91.476562 350.6875 91.390625 352.664062 90.414062 354.300781 C 88.921875 356.855469 85.710938 357.914062 82.785156 357.945312 C 74.324219 358.089844 67.210938 351.890625 61.585938 345.578125 C 41.449219 322.972656 28.941406 294.484375 20.738281 265.335938 C 19.21875 259.972656 17.84375 254.4375 18.101562 248.839844 C 18.386719 243.277344 20.566406 237.507812 25.042969 234.152344 " fill-opacity="1" fill-rule="nonzero"/><g fill="#000000" fill-opacity="1"><g transform="translate(167.414847, 197.756523)"><g><path d="M 20.675781 -32.832031 C 20.265625 -33.0625 19.445312 -33.199219 19.035156 -33.199219 C 18.714844 -33.199219 18.578125 -32.925781 18.535156 -32.332031 C 18.488281 -31.742188 18.171875 -31.011719 17.488281 -30.054688 C 16.847656 -29.144531 16.257812 -27.871094 15.664062 -26.277344 C 15.117188 -24.683594 14.300781 -22.175781 12.84375 -19.082031 L 12.25 -17.804688 C 12.203125 -17.761719 12.160156 -17.714844 12.160156 -17.667969 C 12.160156 -17.804688 12.113281 -17.761719 12.113281 -17.804688 L 9.5625 -23.316406 L 8.605469 -25.636719 C 8.605469 -25.773438 8.5625 -25.957031 8.46875 -26.09375 C 7.96875 -27.597656 6.921875 -29.097656 6.238281 -30.875 C 5.691406 -32.289062 5.054688 -33.152344 4.554688 -33.152344 C 4.417969 -33.152344 4.28125 -33.105469 4.097656 -32.96875 C 3.414062 -32.425781 2.824219 -32.695312 2.6875 -32.378906 C 2.550781 -32.195312 2.550781 -30.921875 2.460938 -30.191406 C 2.777344 -28.234375 2.914062 -26.230469 3.050781 -24.089844 C 3.140625 -23.042969 3.140625 -21.859375 3.140625 -20.582031 L 3.140625 -11.839844 C 3.140625 -10.792969 3.140625 -9.882812 3.050781 -8.972656 C 2.960938 -7.789062 2.914062 -6.328125 2.914062 -4.644531 C 2.914062 -3.003906 3.003906 -1.59375 3.140625 -0.363281 C 3.277344 0.046875 3.734375 0.226562 3.960938 0.226562 C 4.054688 0.226562 4.144531 0.183594 4.28125 0.136719 C 4.691406 0.046875 4.917969 -0.183594 4.917969 -0.59375 C 4.917969 -0.730469 4.871094 -0.820312 4.871094 -0.957031 C 4.734375 -1.546875 4.644531 -2.460938 4.597656 -3.734375 C 4.597656 -4.964844 4.597656 -5.964844 4.644531 -6.921875 C 4.78125 -8.152344 4.871094 -9.199219 4.871094 -10.609375 L 4.871094 -11.476562 C 4.871094 -13.25 4.828125 -14.390625 4.828125 -15.253906 L 4.828125 -19.992188 C 4.828125 -22.722656 4.734375 -26.140625 4.507812 -30.191406 C 5.375 -28.371094 5.921875 -26.777344 6.601562 -25.367188 C 7.46875 -22.859375 8.46875 -20.71875 10.0625 -17.988281 C 10.746094 -16.304688 11.386719 -14.980469 12.433594 -14.617188 C 14.617188 -16.304688 14.980469 -19.808594 16.210938 -22.496094 C 16.941406 -24.683594 17.851562 -26.777344 18.898438 -28.734375 L 18.898438 -24.363281 C 18.898438 -23.132812 18.808594 -22.132812 18.808594 -21.039062 C 18.808594 -19.765625 18.851562 -18.578125 18.851562 -17.351562 L 18.851562 -10.519531 C 19.082031 -6.832031 19.21875 -3.550781 19.398438 -0.273438 C 19.535156 0.0898438 20.308594 0.183594 20.675781 0.183594 C 20.855469 0.183594 20.992188 0.183594 21.039062 0.136719 C 21.265625 -0.046875 21.402344 -0.410156 21.402344 -1 C 21.402344 -1.320312 21.359375 -1.730469 21.265625 -2.1875 C 21.085938 -3.460938 20.992188 -5.28125 20.992188 -7.605469 L 20.992188 -13.617188 C 20.992188 -15.484375 20.902344 -16.804688 20.855469 -18.441406 C 20.855469 -19.125 20.8125 -19.71875 20.8125 -20.308594 C 20.8125 -21.359375 20.855469 -22.40625 20.949219 -23.453125 C 20.992188 -24.5 21.039062 -25.5 21.039062 -26.550781 C 21.039062 -28.597656 20.902344 -30.691406 20.675781 -32.832031 Z M 20.675781 -32.832031 "/></g></g></g><g fill="#000000" fill-opacity="1"><g transform="translate(191.179971, 197.756523)"><g><path d="M 12.980469 -32.789062 C 12.203125 -32.742188 10.519531 -32.558594 8.058594 -32.558594 C 7.242188 -32.558594 5.921875 -32.605469 4.828125 -32.605469 C 2.230469 -32.605469 2.867188 -31.332031 2.777344 -31.011719 C 2.777344 -28.144531 3.097656 -27.914062 3.097656 -24.410156 L 3.097656 -23.453125 C 3.097656 -21.496094 2.914062 -20.171875 2.914062 -16.667969 C 2.914062 -14.480469 3.050781 -10.839844 3.050781 -7.832031 C 3.050781 -5.511719 3.003906 -3.507812 2.867188 -1.683594 C 2.867188 -0.136719 3.460938 0.0898438 4.191406 0.0898438 C 4.460938 0.0898438 4.691406 0.046875 4.964844 0.046875 L 6.421875 0.046875 C 7.058594 0.046875 7.695312 0.183594 8.242188 0.136719 C 9.789062 0.136719 11.113281 0 12.296875 0 L 12.75 0 L 13.84375 0.046875 C 13.980469 -0.136719 14.070312 -0.273438 14.070312 -0.457031 C 14.070312 -1.503906 13.34375 -1.730469 12.339844 -1.730469 C 10.792969 -1.730469 9.519531 -1.546875 8.195312 -1.546875 C 7.105469 -1.546875 5.964844 -1.59375 4.917969 -1.683594 L 4.917969 -3.960938 C 4.917969 -6.328125 4.871094 -6.101562 4.871094 -6.375 L 4.964844 -9.925781 L 4.964844 -10.472656 C 4.964844 -11.703125 4.871094 -12.84375 4.871094 -13.980469 C 4.871094 -14.847656 4.871094 -15.621094 4.917969 -16.441406 C 5.964844 -16.484375 6.921875 -16.53125 7.832031 -16.53125 C 8.425781 -16.53125 8.972656 -16.53125 9.519531 -16.484375 L 10.792969 -16.484375 C 11.339844 -16.53125 11.613281 -16.667969 11.613281 -17.078125 L 11.613281 -17.257812 C 11.429688 -17.804688 11.066406 -18.125 10.519531 -18.125 L 9.609375 -18.125 C 8.652344 -18.125 7.605469 -18.125 6.558594 -18.171875 L 4.734375 -18.214844 L 4.828125 -30.921875 C 6.921875 -31.058594 8.925781 -31.101562 10.882812 -31.101562 C 12.296875 -31.101562 13.660156 -30.964844 15.074219 -30.964844 C 15.621094 -30.964844 15.894531 -31.238281 15.894531 -31.695312 C 15.574219 -32.289062 15.074219 -32.695312 14.4375 -32.878906 C 14.207031 -32.789062 13.933594 -32.742188 13.617188 -32.742188 C 13.433594 -32.742188 13.207031 -32.789062 12.980469 -32.789062 Z M 12.980469 -32.789062 "/></g></g></g><g fill="#000000" fill-opacity="1"><g transform="translate(208.52579, 197.756523)"><g><path d="M 18.808594 -21.402344 C 18.761719 -22.996094 18.761719 -24.136719 18.761719 -25.546875 L 18.761719 -27.367188 C 18.761719 -27.871094 18.851562 -28.734375 18.851562 -29.601562 C 18.851562 -31.011719 18.625 -32.46875 17.488281 -32.46875 C 17.351562 -32.46875 17.304688 -32.425781 17.167969 -32.425781 C 17.03125 -32.425781 16.757812 -31.421875 16.757812 -31.238281 C 16.710938 -30.921875 16.667969 -30.738281 16.667969 -30.421875 C 16.667969 -29.738281 16.757812 -29.191406 16.894531 -28.507812 C 16.984375 -27.871094 17.03125 -27.277344 17.03125 -26.777344 C 17.03125 -26.003906 16.984375 -25.367188 16.984375 -24.5 L 16.984375 -23.816406 C 17.03125 -22.496094 17.03125 -21.128906 17.03125 -19.808594 L 17.03125 -15.027344 C 17.03125 -13.433594 17.03125 -12.066406 17.078125 -10.472656 L 17.078125 -9.425781 C 17.078125 -6.238281 16.578125 -2.324219 13.207031 -1.59375 C 12.523438 -1.457031 11.976562 -1.230469 11.292969 -1.230469 C 10.15625 -1.230469 9.109375 -1.503906 8.105469 -2.09375 L 7.878906 -2.230469 C 6.421875 -3.097656 5.964844 -4.28125 5.464844 -5.785156 C 4.964844 -7.242188 4.734375 -8.742188 4.734375 -10.335938 L 4.734375 -11.65625 C 4.734375 -13.84375 4.734375 -16.074219 4.691406 -18.261719 C 4.644531 -20.039062 4.644531 -21.722656 4.644531 -23.5 C 4.644531 -25.957031 4.691406 -28.417969 4.78125 -30.875 C 4.78125 -31.238281 4.871094 -31.511719 4.871094 -31.832031 C 4.871094 -32.195312 4.417969 -32.46875 3.824219 -32.652344 C 3.6875 -32.652344 3.734375 -32.695312 3.597656 -32.695312 C 3.1875 -32.695312 3.003906 -32.332031 2.867188 -31.921875 C 2.730469 -31.511719 2.730469 -31.058594 2.730469 -30.648438 C 2.730469 -30.054688 2.777344 -29.507812 2.777344 -28.960938 C 2.824219 -27.6875 2.824219 -26.414062 2.824219 -25.136719 L 2.824219 -23.953125 C 2.824219 -20.855469 2.6875 -17.898438 2.6875 -14.800781 C 2.6875 -14.027344 2.730469 -13.296875 2.730469 -12.523438 L 2.730469 -11.703125 C 2.867188 -7.46875 3.003906 -2.6875 7.195312 -0.410156 C 8.605469 0.363281 10.429688 0.867188 12.203125 0.867188 C 12.796875 0.867188 13.386719 0.773438 14.070312 0.636719 C 14.753906 0.457031 15.347656 0.226562 15.894531 -0.0898438 C 17.304688 -0.910156 18.308594 -3.140625 18.535156 -4.554688 C 19.035156 -6.875 19.035156 -9.246094 19.035156 -11.613281 L 19.035156 -15.347656 C 19.035156 -16.804688 18.898438 -18.351562 18.851562 -19.808594 C 18.851562 -20.355469 18.808594 -20.855469 18.808594 -21.402344 Z M 18.808594 -21.402344 "/></g></g></g><g fill="#000000" fill-opacity="1"><g transform="translate(229.877974, 197.756523)"><g/></g></g><g fill="#000000" fill-opacity="1"><g transform="translate(242.534488, 197.756523)"><g><path d="M 16.578125 -1.867188 C 16.347656 -1.957031 16.121094 -1.957031 15.894531 -1.957031 C 13.34375 -1.957031 11.066406 -1.730469 8.878906 -1.730469 L 6.101562 -1.730469 C 5.875 -1.730469 5.601562 -1.683594 5.375 -1.683594 C 5.007812 -1.683594 4.691406 -1.777344 4.691406 -2.324219 L 4.691406 -2.914062 C 4.691406 -3.507812 4.644531 -4.054688 4.644531 -4.644531 C 4.644531 -6.328125 4.734375 -8.058594 4.734375 -9.746094 C 4.734375 -11.429688 4.507812 -13.023438 4.507812 -14.617188 C 4.507812 -17.898438 4.828125 -20.902344 4.828125 -23.863281 C 4.828125 -26.003906 4.78125 -28.144531 4.644531 -30.285156 L 4.644531 -30.691406 C 4.644531 -31.921875 4.644531 -32.96875 3.234375 -32.96875 C 2.867188 -32.96875 2.460938 -32.789062 2.230469 -32.289062 C 2.230469 -31.332031 2.730469 -30.738281 2.730469 -29.828125 C 2.867188 -28.507812 2.960938 -27.277344 2.960938 -26.046875 L 2.960938 -23.042969 C 2.960938 -18.898438 2.640625 -16.941406 2.640625 -13.25 L 2.640625 -11.019531 C 2.640625 -9.152344 2.640625 -6.921875 2.777344 -5.691406 L 2.777344 -4.78125 C 2.777344 -2.730469 2.824219 -1.320312 2.960938 -0.0898438 C 3.1875 -0.046875 3.917969 -0.046875 4.28125 -0.046875 L 5.191406 -0.046875 C 7.332031 -0.046875 9.382812 0 11.519531 0 L 14.480469 0 C 16.257812 0 17.167969 0.046875 17.167969 -0.820312 C 17.167969 -1.320312 16.941406 -1.730469 16.578125 -1.867188 Z M 16.578125 -1.867188 "/></g></g></g><g fill="#000000" fill-opacity="1"><g transform="translate(259.242916, 197.756523)"><g><path d="M 18.808594 -21.402344 C 18.761719 -22.996094 18.761719 -24.136719 18.761719 -25.546875 L 18.761719 -27.367188 C 18.761719 -27.871094 18.851562 -28.734375 18.851562 -29.601562 C 18.851562 -31.011719 18.625 -32.46875 17.488281 -32.46875 C 17.351562 -32.46875 17.304688 -32.425781 17.167969 -32.425781 C 17.03125 -32.425781 16.757812 -31.421875 16.757812 -31.238281 C 16.710938 -30.921875 16.667969 -30.738281 16.667969 -30.421875 C 16.667969 -29.738281 16.757812 -29.191406 16.894531 -28.507812 C 16.984375 -27.871094 17.03125 -27.277344 17.03125 -26.777344 C 17.03125 -26.003906 16.984375 -25.367188 16.984375 -24.5 L 16.984375 -23.816406 C 17.03125 -22.496094 17.03125 -21.128906 17.03125 -19.808594 L 17.03125 -15.027344 C 17.03125 -13.433594 17.03125 -12.066406 17.078125 -10.472656 L 17.078125 -9.425781 C 17.078125 -6.238281 16.578125 -2.324219 13.207031 -1.59375 C 12.523438 -1.457031 11.976562 -1.230469 11.292969 -1.230469 C 10.15625 -1.230469 9.109375 -1.503906 8.105469 -2.09375 L 7.878906 -2.230469 C 6.421875 -3.097656 5.964844 -4.28125 5.464844 -5.785156 C 4.964844 -7.242188 4.734375 -8.742188 4.734375 -10.335938 L 4.734375 -11.65625 C 4.734375 -13.84375 4.734375 -16.074219 4.691406 -18.261719 C 4.644531 -20.039062 4.644531 -21.722656 4.644531 -23.5 C 4.644531 -25.957031 4.691406 -28.417969 4.78125 -30.875 C 4.78125 -31.238281 4.871094 -31.511719 4.871094 -31.832031 C 4.871094 -32.195312 4.417969 -32.46875 3.824219 -32.652344 C 3.6875 -32.652344 3.734375 -32.695312 3.597656 -32.695312 C 3.1875 -32.695312 3.003906 -32.332031 2.867188 -31.921875 C 2.730469 -31.511719 2.730469 -31.058594 2.730469 -30.648438 C 2.730469 -30.054688 2.777344 -29.507812 2.777344 -28.960938 C 2.824219 -27.6875 2.824219 -26.414062 2.824219 -25.136719 L 2.824219 -23.953125 C 2.824219 -20.855469 2.6875 -17.898438 2.6875 -14.800781 C 2.6875 -14.027344 2.730469 -13.296875 2.730469 -12.523438 L 2.730469 -11.703125 C 2.867188 -7.46875 3.003906 -2.6875 7.195312 -0.410156 C 8.605469 0.363281 10.429688 0.867188 12.203125 0.867188 C 12.796875 0.867188 13.386719 0.773438 14.070312 0.636719 C 14.753906 0.457031 15.347656 0.226562 15.894531 -0.0898438 C 17.304688 -0.910156 18.308594 -3.140625 18.535156 -4.554688 C 19.035156 -6.875 19.035156 -9.246094 19.035156 -11.613281 L 19.035156 -15.347656 C 19.035156 -16.804688 18.898438 -18.351562 18.851562 -19.808594 C 18.851562 -20.355469 18.808594 -20.855469 18.808594 -21.402344 Z M 18.808594 -21.402344 "/></g></g></g><g fill="#000000" fill-opacity="1"><g transform="translate(280.5951, 197.756523)"><g><path d="M 16.578125 -32.105469 C 16.441406 -32.46875 16.394531 -32.878906 16.074219 -32.878906 C 16.03125 -32.878906 15.984375 -32.832031 15.9375 -32.832031 L 15.664062 -32.789062 C 14.980469 -32.605469 14.527344 -32.195312 14.34375 -31.511719 C 13.753906 -29.601562 12.75 -27.367188 8.378906 -17.714844 C 8.242188 -17.941406 8.105469 -18.125 7.96875 -18.625 C 5.964844 -23.542969 3.917969 -27.777344 1.777344 -32.695312 C 1.546875 -32.789062 1.320312 -32.832031 1.183594 -32.832031 C 0.773438 -32.832031 0.363281 -32.605469 0 -32.152344 C 0.5 -31.375 0.867188 -30.511719 1.183594 -29.644531 C 3.140625 -24.589844 5.101562 -20.628906 7.105469 -16.121094 C 7.011719 -15.210938 4.78125 -11.75 4.191406 -10.519531 C 3.097656 -8.105469 2.09375 -6.558594 1.136719 -3.871094 C 0.820312 -3.003906 0.5 -2.367188 0.320312 -1.820312 C -0.0898438 -0.683594 -0.320312 -0.136719 -0.320312 0 C -0.320312 0.046875 -0.046875 0.410156 0.136719 0.410156 C 0.183594 0.410156 1.183594 0.320312 1.320312 0.0898438 C 2.230469 -2.140625 3.140625 -3.960938 4.007812 -6.191406 C 5.691406 -9.699219 7.011719 -11.792969 8.195312 -13.796875 C 9.289062 -12.476562 12.296875 -7.105469 12.660156 -6.375 L 15.800781 0 C 15.9375 0.046875 16.167969 0.0898438 16.394531 0.0898438 C 16.710938 0.0898438 16.984375 0 17.214844 -0.183594 C 17.304688 -0.226562 17.351562 -0.363281 17.351562 -0.5 C 17.03125 -1.230469 16.757812 -1.957031 16.347656 -2.824219 C 13.480469 -8.789062 10.609375 -13.570312 9.5625 -16.074219 C 10.429688 -18.214844 11.386719 -20.402344 13.070312 -24.226562 C 14.710938 -27.871094 15.894531 -30.238281 16.578125 -32.105469 Z M 16.578125 -32.105469 "/></g></g></g><g fill="#000000" fill-opacity="1"><g transform="translate(297.713272, 197.756523)"><g><path d="M 21.175781 -32.152344 C 19.125 -32.789062 17.53125 -33.199219 15.9375 -33.378906 C 15.621094 -33.425781 15.300781 -33.425781 14.9375 -33.425781 C 13.617188 -33.425781 12.203125 -33.242188 10.65625 -32.832031 C 8.699219 -32.332031 6.738281 -31.332031 5.417969 -29.644531 C 2.960938 -26.457031 1.867188 -22.039062 1.503906 -16.667969 C 1.503906 -11.203125 2.640625 -5.601562 6.832031 -1.867188 C 8.425781 -0.730469 10.335938 0.320312 12.886719 0.730469 C 13.570312 0.820312 14.253906 0.867188 14.9375 0.867188 C 16.074219 0.867188 17.167969 0.730469 18.261719 0.457031 L 20.492188 -0.457031 L 22.222656 -1.546875 C 23.363281 -2.140625 24.273438 -2.960938 25 -4.054688 C 27.1875 -6.921875 28.144531 -10.199219 28.144531 -13.617188 C 27.960938 -16.710938 28.144531 -19.765625 27.734375 -22.496094 C 27.503906 -23.90625 26.867188 -25.59375 26.003906 -27.824219 C 25.136719 -29.964844 23.132812 -31.421875 21.175781 -32.152344 Z M 19.71875 -30.785156 C 22.953125 -29.691406 24.179688 -27.550781 25.136719 -24.042969 L 25.5 -22.769531 L 25.910156 -20.308594 C 26.183594 -19.171875 26.230469 -17.988281 26.230469 -16.894531 C 26.230469 -15.894531 26.183594 -14.9375 26.183594 -14.164062 C 26.183594 -13.160156 26.09375 -12.203125 25.910156 -11.292969 C 25.410156 -8.878906 24.957031 -7.332031 24.273438 -6.375 C 23.679688 -5.601562 23.179688 -4.964844 22.679688 -4.460938 C 20.128906 -2.414062 19.492188 -1.640625 16.304688 -1.410156 C 15.800781 -1.367188 15.347656 -1.320312 14.847656 -1.320312 C 13.796875 -1.320312 12.707031 -1.457031 11.476562 -1.683594 C 9.972656 -2.003906 9.0625 -2.6875 8.015625 -3.597656 C 5.785156 -5.648438 4.78125 -7.285156 4.28125 -9.609375 C 3.871094 -11.65625 3.414062 -13.570312 3.414062 -15.164062 L 3.414062 -15.800781 C 3.734375 -18.125 3.78125 -20.582031 4.28125 -22.996094 C 5.28125 -27.640625 8.058594 -30.285156 12.75 -31.148438 C 13.707031 -31.332031 14.34375 -31.421875 15.210938 -31.421875 C 16.710938 -31.421875 18.035156 -31.101562 19.71875 -30.785156 Z M 19.71875 -30.785156 "/></g></g></g><g fill="#545454" fill-opacity="1"><g transform="translate(277.145845, 213.711715)"><g><path d="M 2.578125 0.09375 C 2.117188 0.09375 1.675781 0.0351562 1.25 -0.078125 C 0.832031 -0.203125 0.492188 -0.363281 0.234375 -0.5625 L 0.6875 -1.578125 C 0.925781 -1.390625 1.21875 -1.238281 1.5625 -1.125 C 1.90625 -1.019531 2.242188 -0.96875 2.578125 -0.96875 C 2.960938 -0.96875 3.242188 -1.023438 3.421875 -1.140625 C 3.609375 -1.253906 3.703125 -1.40625 3.703125 -1.59375 C 3.703125 -1.726562 3.644531 -1.835938 3.53125 -1.921875 C 3.425781 -2.015625 3.289062 -2.085938 3.125 -2.140625 C 2.957031 -2.203125 2.734375 -2.265625 2.453125 -2.328125 C 2.003906 -2.429688 1.640625 -2.535156 1.359375 -2.640625 C 1.085938 -2.742188 0.847656 -2.910156 0.640625 -3.140625 C 0.441406 -3.367188 0.34375 -3.675781 0.34375 -4.0625 C 0.34375 -4.394531 0.429688 -4.695312 0.609375 -4.96875 C 0.796875 -5.25 1.070312 -5.46875 1.4375 -5.625 C 1.800781 -5.78125 2.25 -5.859375 2.78125 -5.859375 C 3.144531 -5.859375 3.5 -5.8125 3.84375 -5.71875 C 4.195312 -5.632812 4.507812 -5.515625 4.78125 -5.359375 L 4.359375 -4.34375 C 3.828125 -4.644531 3.296875 -4.796875 2.765625 -4.796875 C 2.390625 -4.796875 2.113281 -4.734375 1.9375 -4.609375 C 1.757812 -4.492188 1.671875 -4.335938 1.671875 -4.140625 C 1.671875 -3.941406 1.773438 -3.789062 1.984375 -3.6875 C 2.191406 -3.59375 2.503906 -3.5 2.921875 -3.40625 C 3.359375 -3.300781 3.71875 -3.195312 4 -3.09375 C 4.28125 -2.988281 4.519531 -2.820312 4.71875 -2.59375 C 4.914062 -2.375 5.015625 -2.070312 5.015625 -1.6875 C 5.015625 -1.351562 4.921875 -1.050781 4.734375 -0.78125 C 4.554688 -0.507812 4.285156 -0.296875 3.921875 -0.140625 C 3.554688 0.015625 3.109375 0.09375 2.578125 0.09375 Z M 2.578125 0.09375 "/></g></g></g><g fill="#545454" fill-opacity="1"><g transform="translate(286.272639, 213.711715)"><g><path d="M 1.875 -4.671875 L 0.03125 -4.671875 L 0.03125 -5.765625 L 5.0625 -5.765625 L 5.0625 -4.671875 L 3.21875 -4.671875 L 3.21875 0 L 1.875 0 Z M 1.875 -4.671875 "/></g></g></g><g fill="#545454" fill-opacity="1"><g transform="translate(295.234687, 213.711715)"><g><path d="M 3.46875 0.09375 C 2.875 0.09375 2.335938 -0.03125 1.859375 -0.28125 C 1.378906 -0.539062 1.003906 -0.894531 0.734375 -1.34375 C 0.460938 -1.800781 0.328125 -2.3125 0.328125 -2.875 C 0.328125 -3.445312 0.460938 -3.957031 0.734375 -4.40625 C 1.003906 -4.863281 1.378906 -5.21875 1.859375 -5.46875 C 2.335938 -5.726562 2.875 -5.859375 3.46875 -5.859375 C 4.070312 -5.859375 4.613281 -5.726562 5.09375 -5.46875 C 5.570312 -5.21875 5.945312 -4.863281 6.21875 -4.40625 C 6.488281 -3.957031 6.625 -3.445312 6.625 -2.875 C 6.625 -2.3125 6.488281 -1.800781 6.21875 -1.34375 C 5.945312 -0.894531 5.570312 -0.539062 5.09375 -0.28125 C 4.613281 -0.03125 4.070312 0.09375 3.46875 0.09375 Z M 3.46875 -1.03125 C 3.8125 -1.03125 4.117188 -1.109375 4.390625 -1.265625 C 4.671875 -1.421875 4.890625 -1.640625 5.046875 -1.921875 C 5.203125 -2.203125 5.28125 -2.519531 5.28125 -2.875 C 5.28125 -3.238281 5.203125 -3.554688 5.046875 -3.828125 C 4.890625 -4.109375 4.671875 -4.328125 4.390625 -4.484375 C 4.117188 -4.640625 3.8125 -4.71875 3.46875 -4.71875 C 3.132812 -4.71875 2.828125 -4.640625 2.546875 -4.484375 C 2.273438 -4.328125 2.0625 -4.109375 1.90625 -3.828125 C 1.75 -3.554688 1.671875 -3.238281 1.671875 -2.875 C 1.671875 -2.519531 1.75 -2.203125 1.90625 -1.921875 C 2.0625 -1.640625 2.273438 -1.421875 2.546875 -1.265625 C 2.828125 -1.109375 3.132812 -1.03125 3.46875 -1.03125 Z M 3.46875 -1.03125 "/></g></g></g><g fill="#545454" fill-opacity="1"><g transform="translate(306.058344, 213.711715)"><g><path d="M 4.359375 0 L 3.25 -1.609375 L 2.015625 -1.609375 L 2.015625 0 L 0.6875 0 L 0.6875 -5.765625 L 3.171875 -5.765625 C 3.679688 -5.765625 4.125 -5.675781 4.5 -5.5 C 4.882812 -5.332031 5.175781 -5.09375 5.375 -4.78125 C 5.582031 -4.46875 5.6875 -4.097656 5.6875 -3.671875 C 5.6875 -3.242188 5.582031 -2.875 5.375 -2.5625 C 5.164062 -2.25 4.875 -2.015625 4.5 -1.859375 L 5.78125 0 Z M 4.328125 -3.671875 C 4.328125 -3.992188 4.222656 -4.238281 4.015625 -4.40625 C 3.804688 -4.582031 3.503906 -4.671875 3.109375 -4.671875 L 2.015625 -4.671875 L 2.015625 -2.671875 L 3.109375 -2.671875 C 3.503906 -2.671875 3.804688 -2.753906 4.015625 -2.921875 C 4.222656 -3.097656 4.328125 -3.347656 4.328125 -3.671875 Z M 4.328125 -3.671875 "/></g></g></g><g fill="#545454" fill-opacity="1"><g transform="translate(315.984153, 213.711715)"><g><path d="M 5.140625 -1.078125 L 5.140625 0 L 0.6875 0 L 0.6875 -5.765625 L 5.046875 -5.765625 L 5.046875 -4.6875 L 2.015625 -4.6875 L 2.015625 -3.4375 L 4.6875 -3.4375 L 4.6875 -2.40625 L 2.015625 -2.40625 L 2.015625 -1.078125 Z M 5.140625 -1.078125 "/></g></g></g></svg>