<svg xmlns="http://www.w3.org/2000/svg" xmlns:xlink="http://www.w3.org/1999/xlink" width="500" zoomAndPan="magnify" viewBox="0 0 375 374.999991" height="500" preserveAspectRatio="xMidYMid meet" version="1.0"><defs><clipPath id="fda9b555d7"><path d="M 113 10.359375 L 147 10.359375 L 147 69 L 113 69 Z M 113 10.359375 " clip-rule="nonzero"/></clipPath></defs><path fill="#000000" d="M 186.800781 62.289062 C 189.289062 62.289062 191.78125 62.351562 194.269531 62.472656 C 196.757812 62.597656 199.242188 62.777344 201.71875 63.023438 C 204.199219 63.265625 206.671875 63.570312 209.132812 63.9375 C 211.597656 64.300781 214.050781 64.726562 216.496094 65.210938 C 218.9375 65.695312 221.367188 66.242188 223.785156 66.847656 C 226.203125 67.449219 228.601562 68.113281 230.984375 68.835938 C 233.371094 69.558594 235.734375 70.339844 238.078125 71.175781 C 240.425781 72.015625 242.75 72.910156 245.050781 73.863281 C 247.351562 74.816406 249.628906 75.824219 251.878906 76.886719 C 254.132812 77.949219 256.355469 79.070312 258.554688 80.242188 C 260.75 81.414062 262.917969 82.640625 265.054688 83.917969 C 267.191406 85.199219 269.292969 86.53125 271.367188 87.914062 C 273.4375 89.292969 275.472656 90.726562 277.472656 92.210938 C 279.476562 93.691406 281.4375 95.222656 283.363281 96.800781 C 285.289062 98.378906 287.175781 100.003906 289.019531 101.675781 C 290.867188 103.34375 292.671875 105.0625 294.433594 106.820312 C 296.195312 108.578125 297.910156 110.382812 299.582031 112.226562 C 301.257812 114.070312 302.882812 115.953125 304.464844 117.875 C 306.042969 119.800781 307.578125 121.761719 309.058594 123.757812 C 310.542969 125.757812 311.976562 127.789062 313.363281 129.859375 C 314.746094 131.929688 316.078125 134.03125 317.359375 136.164062 C 318.640625 138.300781 319.867188 140.464844 321.042969 142.65625 C 322.214844 144.851562 323.335938 147.074219 324.398438 149.324219 C 325.464844 151.574219 326.472656 153.847656 327.425781 156.144531 C 328.382812 158.445312 329.277344 160.765625 330.117188 163.109375 C 330.957031 165.449219 331.738281 167.8125 332.460938 170.195312 C 333.183594 172.574219 333.847656 174.972656 334.453125 177.386719 C 335.058594 179.800781 335.601562 182.226562 336.089844 184.667969 C 336.574219 187.109375 337 189.558594 337.367188 192.019531 C 337.730469 194.480469 338.035156 196.949219 338.28125 199.425781 C 338.523438 201.902344 338.707031 204.382812 338.828125 206.867188 C 338.953125 209.355469 339.011719 211.839844 339.011719 214.328125 C 339.015625 224.890625 337.9375 235.339844 335.773438 245.675781 C 335.742188 245.835938 335.65625 245.957031 335.523438 246.046875 C 335.386719 246.136719 335.242188 246.164062 335.082031 246.132812 C 334.925781 246.097656 334.800781 246.015625 334.710938 245.878906 C 334.621094 245.746094 334.59375 245.597656 334.625 245.441406 C 336.78125 235.183594 337.859375 224.8125 337.867188 214.328125 C 337.867188 131.128906 270.09375 63.4375 186.800781 63.4375 C 103.503906 63.4375 35.734375 131.128906 35.734375 214.328125 C 35.734375 297.527344 103.503906 365.222656 186.800781 365.222656 C 191.445312 365.226562 196.082031 365.015625 200.707031 364.59375 C 205.335938 364.167969 209.929688 363.535156 214.5 362.683594 C 219.066406 361.835938 223.585938 360.777344 228.054688 359.511719 C 232.523438 358.246094 236.925781 356.777344 241.257812 355.105469 C 245.59375 353.433594 249.839844 351.566406 254 349.5 C 258.160156 347.433594 262.214844 345.183594 266.167969 342.742188 C 270.121094 340.304688 273.949219 337.6875 277.660156 334.894531 C 281.371094 332.101562 284.941406 329.140625 288.378906 326.019531 C 288.488281 325.878906 288.632812 325.804688 288.808594 325.796875 C 288.988281 325.789062 289.136719 325.851562 289.257812 325.984375 C 289.378906 326.117188 289.425781 326.269531 289.398438 326.449219 C 289.375 326.625 289.285156 326.761719 289.136719 326.855469 C 286.859375 328.921875 284.519531 330.917969 282.121094 332.839844 C 279.726562 334.765625 277.269531 336.617188 274.761719 338.394531 C 272.25 340.167969 269.6875 341.867188 267.074219 343.488281 C 264.460938 345.109375 261.800781 346.652344 259.09375 348.109375 C 256.386719 349.570312 253.636719 350.949219 250.847656 352.242188 C 248.058594 353.535156 245.230469 354.742188 242.367188 355.863281 C 239.503906 356.988281 236.605469 358.019531 233.679688 358.96875 C 230.753906 359.914062 227.800781 360.773438 224.824219 361.539062 C 221.84375 362.308594 218.84375 362.988281 215.824219 363.574219 C 212.804688 364.160156 209.769531 364.652344 206.71875 365.054688 C 203.671875 365.460938 200.609375 365.769531 197.542969 365.988281 C 194.472656 366.203125 191.402344 366.328125 188.324219 366.359375 C 185.25 366.390625 182.175781 366.328125 179.101562 366.175781 C 176.03125 366.019531 172.964844 365.773438 169.90625 365.429688 C 166.851562 365.089844 163.804688 364.65625 160.773438 364.132812 C 157.742188 363.609375 154.730469 362.992188 151.738281 362.285156 C 148.742188 361.578125 145.773438 360.78125 142.828125 359.894531 C 139.882812 359.003906 136.96875 358.03125 134.082031 356.964844 C 131.195312 355.902344 128.34375 354.753906 125.527344 353.515625 C 122.710938 352.28125 119.933594 350.960938 117.199219 349.554688 C 114.460938 348.148438 111.769531 346.664062 109.125 345.097656 C 106.480469 343.527344 103.882812 341.882812 101.335938 340.15625 C 98.792969 338.433594 96.300781 336.632812 93.863281 334.757812 C 91.425781 332.882812 89.046875 330.933594 86.730469 328.914062 C 84.410156 326.894531 82.15625 324.804688 79.964844 322.648438 C 77.773438 320.492188 75.648438 318.273438 73.589844 315.988281 C 71.535156 313.703125 69.546875 311.359375 67.632812 308.953125 C 65.71875 306.546875 63.878906 304.085938 62.113281 301.570312 C 60.347656 299.054688 58.660156 296.484375 57.050781 293.867188 C 55.441406 291.25 53.914062 288.582031 52.464844 285.871094 C 51.019531 283.160156 49.65625 280.40625 48.375 277.613281 C 47.09375 274.820312 45.898438 271.988281 44.789062 269.125 C 43.683594 266.257812 42.660156 263.359375 41.726562 260.433594 C 40.796875 257.503906 39.953125 254.550781 39.199219 251.570312 C 38.445312 248.589844 37.78125 245.59375 37.210938 242.574219 C 36.640625 239.554688 36.160156 236.519531 35.773438 233.472656 C 35.386719 230.421875 35.089844 227.367188 34.890625 224.300781 C 34.6875 221.234375 34.578125 218.164062 34.5625 215.089844 C 34.546875 212.019531 34.625 208.949219 34.796875 205.878906 C 34.96875 202.8125 35.230469 199.75 35.589844 196.699219 C 35.945312 193.648438 36.394531 190.609375 36.933594 187.582031 C 37.476562 184.558594 38.109375 181.554688 38.832031 178.566406 C 39.554688 175.578125 40.371094 172.617188 41.273438 169.679688 C 42.175781 166.742188 43.167969 163.835938 44.25 160.957031 C 45.328125 158.082031 46.492188 155.238281 47.746094 152.433594 C 49 149.625 50.335938 146.859375 51.753906 144.132812 C 53.175781 141.410156 54.679688 138.726562 56.261719 136.09375 C 57.84375 133.457031 59.503906 130.875 61.246094 128.339844 C 62.984375 125.804688 64.800781 123.328125 66.691406 120.902344 C 68.582031 118.476562 70.542969 116.113281 72.578125 113.808594 C 74.609375 111.503906 76.714844 109.261719 78.882812 107.082031 C 81.054688 104.90625 83.289062 102.792969 85.585938 100.75 C 87.882812 98.707031 90.242188 96.738281 92.660156 94.835938 C 95.078125 92.9375 97.550781 91.113281 100.078125 89.363281 C 102.609375 87.613281 105.1875 85.941406 107.816406 84.347656 C 110.449219 82.75 113.125 81.238281 115.84375 79.808594 C 118.566406 78.375 121.332031 77.027344 124.132812 75.761719 C 126.9375 74.496094 129.777344 73.320312 132.652344 72.226562 C 135.527344 71.132812 138.433594 70.128906 141.371094 69.210938 C 144.304688 68.296875 147.269531 67.46875 150.253906 66.730469 C 153.242188 65.996094 156.246094 65.347656 159.273438 64.792969 C 162.296875 64.238281 165.339844 63.773438 168.390625 63.402344 C 171.445312 63.03125 174.507812 62.753906 177.578125 62.570312 C 180.648438 62.382812 183.722656 62.289062 186.800781 62.289062 Z M 186.800781 62.289062 " fill-opacity="1" fill-rule="nonzero"/><path fill="#000000" d="M 191.035156 60.859375 C 194.066406 60.859375 197.09375 60.953125 200.117188 61.136719 C 203.140625 61.316406 206.160156 61.589844 209.167969 61.953125 C 212.175781 62.316406 215.167969 62.765625 218.148438 63.308594 C 221.132812 63.847656 224.09375 64.476562 227.035156 65.195312 C 229.980469 65.910156 232.898438 66.714844 235.796875 67.605469 C 238.691406 68.496094 241.558594 69.472656 244.394531 70.535156 C 247.230469 71.597656 250.035156 72.742188 252.804688 73.972656 C 255.570312 75.203125 258.300781 76.511719 260.992188 77.90625 C 263.683594 79.296875 266.328125 80.765625 268.929688 82.316406 C 271.535156 83.867188 274.085938 85.492188 276.59375 87.195312 C 279.097656 88.894531 281.550781 90.671875 283.949219 92.519531 C 286.347656 94.367188 288.691406 96.285156 290.976562 98.273438 C 293.261719 100.261719 295.484375 102.3125 297.644531 104.433594 C 299.808594 106.554688 301.90625 108.738281 303.9375 110.980469 C 305.96875 113.226562 307.929688 115.53125 309.824219 117.894531 C 311.71875 120.253906 313.539062 122.671875 315.289062 125.140625 C 317.039062 127.613281 318.714844 130.132812 320.3125 132.703125 C 321.914062 135.273438 323.433594 137.890625 324.875 140.550781 C 326.320312 143.210938 327.679688 145.914062 328.960938 148.65625 C 330.242188 151.398438 331.441406 154.175781 332.558594 156.992188 C 333.671875 159.804688 334.703125 162.648438 335.648438 165.523438 C 336.59375 168.398438 337.453125 171.300781 338.226562 174.226562 C 338.996094 177.152344 339.683594 180.101562 340.277344 183.066406 C 340.875 186.035156 341.382812 189.015625 341.800781 192.015625 C 342.21875 195.011719 342.546875 198.019531 342.785156 201.035156 C 343.023438 204.054688 343.167969 207.074219 343.226562 210.101562 C 343.285156 213.125 343.253906 216.152344 343.128906 219.175781 C 343.007812 222.199219 342.792969 225.214844 342.492188 228.226562 C 342.1875 231.238281 341.792969 234.238281 341.3125 237.226562 C 340.828125 240.214844 340.257812 243.183594 339.597656 246.136719 C 338.9375 249.089844 338.191406 252.023438 337.355469 254.933594 C 336.519531 257.839844 335.601562 260.722656 334.59375 263.578125 C 334.539062 263.726562 334.441406 263.835938 334.296875 263.902344 C 334.15625 263.972656 334.007812 263.980469 333.859375 263.925781 C 333.710938 263.875 333.601562 263.773438 333.53125 263.632812 C 333.464844 263.488281 333.457031 263.34375 333.507812 263.191406 C 336.363281 255.117188 338.515625 246.863281 339.957031 238.421875 C 341.402344 229.980469 342.117188 221.476562 342.109375 212.914062 C 342.109375 129.714844 274.339844 62.023438 191.042969 62.023438 C 107.746094 62.023438 39.96875 129.699219 39.96875 212.898438 C 39.96875 296.097656 107.734375 363.789062 191.035156 363.789062 C 195.871094 363.800781 200.691406 363.578125 205.503906 363.121094 C 210.3125 362.667969 215.09375 361.984375 219.835938 361.066406 C 224.582031 360.152344 229.273438 359.011719 233.90625 357.644531 C 238.542969 356.277344 243.101562 354.691406 247.582031 352.882812 C 252.0625 351.078125 256.449219 349.0625 260.734375 346.832031 C 265.023438 344.605469 269.191406 342.175781 273.242188 339.542969 C 277.296875 336.914062 281.210938 334.09375 284.992188 331.085938 C 288.773438 328.078125 292.398438 324.898438 295.871094 321.539062 C 295.984375 321.429688 296.121094 321.378906 296.28125 321.378906 C 296.4375 321.382812 296.574219 321.441406 296.683594 321.554688 C 296.792969 321.667969 296.847656 321.804688 296.84375 321.960938 C 296.839844 322.121094 296.78125 322.253906 296.667969 322.363281 C 294.4375 324.511719 292.140625 326.59375 289.78125 328.601562 C 287.421875 330.609375 285.003906 332.542969 282.527344 334.40625 C 280.050781 336.265625 277.519531 338.050781 274.933594 339.757812 C 272.347656 341.460938 269.710938 343.089844 267.023438 344.632812 C 264.339844 346.179688 261.609375 347.640625 258.835938 349.019531 C 256.058594 350.398438 253.246094 351.691406 250.390625 352.902344 C 247.535156 354.109375 244.648438 355.226562 241.726562 356.257812 C 238.800781 357.289062 235.851562 358.230469 232.871094 359.082031 C 229.890625 359.933594 226.886719 360.691406 223.859375 361.359375 C 220.832031 362.027344 217.789062 362.601562 214.726562 363.082031 C 211.664062 363.566406 208.589844 363.953125 205.507812 364.246094 C 202.421875 364.542969 199.328125 364.742188 196.230469 364.847656 C 193.132812 364.953125 190.035156 364.964844 186.9375 364.878906 C 183.839844 364.796875 180.746094 364.621094 177.65625 364.347656 C 174.570312 364.074219 171.492188 363.710938 168.429688 363.25 C 165.363281 362.789062 162.316406 362.238281 159.285156 361.589844 C 156.253906 360.945312 153.242188 360.207031 150.257812 359.378906 C 147.269531 358.546875 144.3125 357.628906 141.382812 356.617188 C 138.453125 355.609375 135.554688 354.511719 132.691406 353.324219 C 129.832031 352.136719 127.007812 350.863281 124.222656 349.503906 C 121.4375 348.144531 118.695312 346.703125 116 345.175781 C 113.300781 343.652344 110.652344 342.042969 108.054688 340.355469 C 105.457031 338.667969 102.914062 336.902344 100.421875 335.058594 C 97.933594 333.214844 95.5 331.300781 93.125 329.308594 C 90.753906 327.316406 88.441406 325.253906 86.195312 323.121094 C 83.949219 320.988281 81.769531 318.789062 79.65625 316.523438 C 77.542969 314.257812 75.503906 311.929688 73.53125 309.542969 C 71.5625 307.152344 69.667969 304.703125 67.847656 302.199219 C 66.023438 299.691406 64.28125 297.132812 62.617188 294.519531 C 60.953125 291.910156 59.371094 289.25 57.871094 286.539062 C 56.371094 283.832031 54.953125 281.078125 53.621094 278.285156 C 52.285156 275.488281 51.039062 272.65625 49.878906 269.785156 C 48.71875 266.914062 47.648438 264.011719 46.667969 261.074219 C 45.683594 258.136719 44.792969 255.171875 43.992188 252.183594 C 43.191406 249.191406 42.484375 246.179688 41.867188 243.144531 C 41.25 240.109375 40.726562 237.0625 40.296875 233.996094 C 39.867188 230.929688 39.53125 227.851562 39.289062 224.765625 C 39.046875 221.679688 38.898438 218.585938 38.847656 215.492188 C 38.792969 212.398438 38.835938 209.300781 38.972656 206.210938 C 39.105469 203.117188 39.339844 200.03125 39.664062 196.953125 C 39.988281 193.871094 40.40625 190.804688 40.917969 187.753906 C 41.433594 184.699219 42.039062 181.664062 42.734375 178.648438 C 43.433594 175.632812 44.222656 172.640625 45.105469 169.671875 C 45.988281 166.703125 46.957031 163.765625 48.019531 160.855469 C 49.078125 157.945312 50.226562 155.070312 51.464844 152.234375 C 52.703125 149.394531 54.023438 146.59375 55.433594 143.835938 C 56.839844 141.078125 58.332031 138.367188 59.90625 135.699219 C 61.480469 133.03125 63.132812 130.414062 64.867188 127.847656 C 66.601562 125.28125 68.410156 122.769531 70.296875 120.316406 C 72.1875 117.859375 74.148438 115.464844 76.179688 113.128906 C 78.214844 110.792969 80.316406 108.519531 82.492188 106.3125 C 84.664062 104.105469 86.902344 101.964844 89.207031 99.894531 C 91.511719 97.820312 93.875 95.824219 96.300781 93.894531 C 98.726562 91.96875 101.210938 90.117188 103.75 88.34375 C 106.289062 86.566406 108.878906 84.871094 111.523438 83.253906 C 114.164062 81.636719 116.855469 80.101562 119.59375 78.648438 C 122.328125 77.195312 125.109375 75.824219 127.929688 74.542969 C 130.75 73.257812 133.605469 72.0625 136.5 70.953125 C 139.394531 69.84375 142.320312 68.824219 145.277344 67.894531 C 148.230469 66.960938 151.214844 66.121094 154.222656 65.375 C 157.230469 64.625 160.257812 63.96875 163.304688 63.402344 C 166.351562 62.839844 169.414062 62.371094 172.492188 61.992188 C 175.566406 61.613281 178.652344 61.332031 181.746094 61.144531 C 184.839844 60.953125 187.9375 60.859375 191.035156 60.859375 Z M 191.035156 60.859375 " fill-opacity="1" fill-rule="nonzero"/><path fill="#000000" d="M 295.136719 323.070312 C 295.019531 322.953125 294.929688 322.808594 294.871094 322.636719 C 294.8125 322.464844 294.785156 322.265625 294.785156 322.046875 C 294.789062 321.828125 294.820312 321.585938 294.882812 321.328125 C 294.949219 321.066406 295.042969 320.792969 295.164062 320.503906 C 295.285156 320.214844 295.433594 319.914062 295.613281 319.609375 C 295.789062 319.300781 295.988281 318.988281 296.210938 318.675781 C 296.4375 318.363281 296.679688 318.050781 296.941406 317.742188 C 297.203125 317.433594 297.480469 317.136719 297.773438 316.84375 C 298.0625 316.554688 298.363281 316.277344 298.671875 316.015625 C 298.980469 315.753906 299.292969 315.507812 299.605469 315.285156 C 299.921875 315.0625 300.230469 314.863281 300.539062 314.6875 C 300.847656 314.511719 301.144531 314.359375 301.433594 314.238281 C 301.726562 314.117188 302 314.023438 302.261719 313.960938 C 302.519531 313.894531 302.761719 313.863281 302.980469 313.863281 C 303.203125 313.859375 303.398438 313.886719 303.570312 313.945312 C 303.742188 314.003906 303.890625 314.09375 304.007812 314.210938 C 304.125 314.332031 304.214844 314.476562 304.273438 314.648438 C 304.332031 314.820312 304.359375 315.015625 304.359375 315.238281 C 304.355469 315.457031 304.324219 315.699219 304.261719 315.957031 C 304.195312 316.21875 304.101562 316.492188 303.980469 316.78125 C 303.859375 317.070312 303.710938 317.367188 303.53125 317.675781 C 303.355469 317.984375 303.15625 318.292969 302.933594 318.609375 C 302.707031 318.921875 302.464844 319.234375 302.203125 319.542969 C 301.941406 319.847656 301.664062 320.148438 301.371094 320.441406 C 301.082031 320.730469 300.78125 321.007812 300.472656 321.269531 C 300.164062 321.53125 299.851562 321.773438 299.539062 322 C 299.222656 322.222656 298.914062 322.421875 298.605469 322.597656 C 298.296875 322.773438 298 322.921875 297.710938 323.046875 C 297.417969 323.167969 297.144531 323.261719 296.882812 323.324219 C 296.625 323.386719 296.382812 323.421875 296.164062 323.421875 C 295.941406 323.425781 295.746094 323.398438 295.574219 323.335938 C 295.402344 323.277344 295.253906 323.191406 295.136719 323.070312 Z M 295.136719 323.070312 " fill-opacity="1" fill-rule="nonzero"/><path fill="#000000" d="M 330.394531 272.308594 C 330.238281 272.25 330.097656 272.152344 329.976562 272.015625 C 329.851562 271.882812 329.746094 271.714844 329.660156 271.511719 C 329.574219 271.308594 329.507812 271.074219 329.460938 270.8125 C 329.414062 270.550781 329.390625 270.261719 329.386719 269.945312 C 329.382812 269.632812 329.398438 269.300781 329.4375 268.949219 C 329.472656 268.59375 329.53125 268.230469 329.609375 267.851562 C 329.691406 267.476562 329.789062 267.09375 329.902344 266.707031 C 330.019531 266.316406 330.152344 265.933594 330.300781 265.550781 C 330.453125 265.164062 330.617188 264.792969 330.792969 264.429688 C 330.96875 264.0625 331.15625 263.714844 331.355469 263.386719 C 331.554688 263.054688 331.757812 262.746094 331.96875 262.460938 C 332.179688 262.175781 332.394531 261.921875 332.609375 261.691406 C 332.824219 261.464844 333.039062 261.269531 333.25 261.105469 C 333.464844 260.945312 333.671875 260.816406 333.871094 260.726562 C 334.074219 260.636719 334.265625 260.582031 334.445312 260.570312 C 334.628906 260.554688 334.796875 260.574219 334.953125 260.636719 C 335.109375 260.699219 335.25 260.792969 335.371094 260.929688 C 335.496094 261.0625 335.601562 261.230469 335.6875 261.433594 C 335.773438 261.636719 335.839844 261.871094 335.886719 262.132812 C 335.933594 262.398438 335.957031 262.6875 335.960938 263 C 335.96875 263.3125 335.949219 263.644531 335.914062 264 C 335.875 264.351562 335.816406 264.714844 335.738281 265.09375 C 335.660156 265.46875 335.5625 265.851562 335.445312 266.242188 C 335.328125 266.628906 335.195312 267.015625 335.046875 267.398438 C 334.894531 267.78125 334.734375 268.152344 334.554688 268.519531 C 334.378906 268.882812 334.191406 269.230469 333.992188 269.558594 C 333.796875 269.890625 333.589844 270.199219 333.378906 270.484375 C 333.167969 270.769531 332.957031 271.023438 332.738281 271.253906 C 332.523438 271.480469 332.308594 271.675781 332.097656 271.839844 C 331.882812 272 331.675781 272.128906 331.476562 272.21875 C 331.273438 272.308594 331.082031 272.363281 330.902344 272.378906 C 330.71875 272.394531 330.550781 272.371094 330.394531 272.308594 Z M 330.394531 272.308594 " fill-opacity="1" fill-rule="nonzero"/><path fill="#000000" d="M 314.132812 295.210938 C 314.132812 294.890625 314.164062 294.574219 314.222656 294.261719 C 314.285156 293.949219 314.378906 293.644531 314.5 293.351562 C 314.625 293.058594 314.773438 292.777344 314.949219 292.511719 C 315.128906 292.246094 315.328125 292 315.554688 291.777344 C 315.78125 291.550781 316.027344 291.347656 316.292969 291.171875 C 316.558594 290.996094 316.835938 290.84375 317.132812 290.722656 C 317.425781 290.601562 317.730469 290.507812 318.042969 290.449219 C 318.359375 290.386719 318.671875 290.355469 318.992188 290.355469 C 319.3125 290.355469 319.628906 290.386719 319.941406 290.449219 C 320.253906 290.507812 320.558594 290.601562 320.851562 290.722656 C 321.148438 290.84375 321.429688 290.996094 321.695312 291.171875 C 321.960938 291.347656 322.203125 291.550781 322.429688 291.777344 C 322.65625 292 322.859375 292.246094 323.035156 292.511719 C 323.210938 292.777344 323.363281 293.058594 323.484375 293.351562 C 323.605469 293.644531 323.699219 293.949219 323.761719 294.261719 C 323.824219 294.574219 323.855469 294.890625 323.855469 295.210938 C 323.855469 295.527344 323.824219 295.84375 323.761719 296.15625 C 323.699219 296.46875 323.605469 296.773438 323.484375 297.070312 C 323.363281 297.363281 323.210938 297.644531 323.035156 297.90625 C 322.859375 298.171875 322.65625 298.417969 322.429688 298.644531 C 322.203125 298.871094 321.960938 299.070312 321.695312 299.246094 C 321.429688 299.425781 321.148438 299.574219 320.851562 299.695312 C 320.558594 299.820312 320.253906 299.910156 319.941406 299.972656 C 319.628906 300.035156 319.3125 300.066406 318.992188 300.066406 C 318.671875 300.066406 318.359375 300.035156 318.042969 299.972656 C 317.730469 299.910156 317.425781 299.820312 317.132812 299.695312 C 316.835938 299.574219 316.558594 299.425781 316.292969 299.246094 C 316.027344 299.070312 315.78125 298.871094 315.554688 298.644531 C 315.328125 298.417969 315.128906 298.171875 314.949219 297.90625 C 314.773438 297.644531 314.625 297.363281 314.5 297.070312 C 314.378906 296.773438 314.285156 296.46875 314.226562 296.15625 C 314.164062 295.84375 314.132812 295.527344 314.132812 295.210938 Z M 314.132812 295.210938 " fill-opacity="1" fill-rule="nonzero"/><path fill="#000000" d="M 309.917969 305.878906 C 309.917969 305.554688 309.980469 305.246094 310.101562 304.945312 C 310.226562 304.648438 310.402344 304.386719 310.632812 304.15625 C 310.859375 303.929688 311.121094 303.753906 311.421875 303.628906 C 311.71875 303.507812 312.03125 303.445312 312.355469 303.445312 C 312.675781 303.445312 312.988281 303.507812 313.285156 303.628906 C 313.585938 303.753906 313.847656 303.929688 314.078125 304.15625 C 314.304688 304.386719 314.480469 304.648438 314.605469 304.945312 C 314.730469 305.246094 314.789062 305.554688 314.789062 305.878906 C 314.789062 306.203125 314.730469 306.511719 314.605469 306.808594 C 314.480469 307.109375 314.304688 307.371094 314.078125 307.597656 C 313.847656 307.828125 313.585938 308.003906 313.285156 308.128906 C 312.988281 308.25 312.675781 308.3125 312.355469 308.3125 C 312.03125 308.3125 311.71875 308.25 311.421875 308.128906 C 311.121094 308.003906 310.859375 307.828125 310.632812 307.597656 C 310.402344 307.371094 310.226562 307.109375 310.101562 306.808594 C 309.980469 306.511719 309.917969 306.203125 309.917969 305.878906 Z M 309.917969 305.878906 " fill-opacity="1" fill-rule="nonzero"/><path fill="#000000" d="M 323.171875 284.542969 C 323.171875 284.21875 323.234375 283.910156 323.359375 283.609375 C 323.480469 283.3125 323.65625 283.050781 323.886719 282.820312 C 324.113281 282.59375 324.378906 282.417969 324.675781 282.292969 C 324.976562 282.167969 325.285156 282.109375 325.609375 282.109375 C 325.933594 282.109375 326.242188 282.167969 326.542969 282.292969 C 326.839844 282.417969 327.101562 282.59375 327.332031 282.820312 C 327.558594 283.050781 327.734375 283.3125 327.859375 283.609375 C 327.984375 283.910156 328.046875 284.21875 328.046875 284.542969 C 328.046875 284.863281 327.984375 285.175781 327.859375 285.472656 C 327.734375 285.769531 327.558594 286.035156 327.332031 286.261719 C 327.101562 286.492188 326.839844 286.667969 326.542969 286.789062 C 326.242188 286.914062 325.933594 286.976562 325.609375 286.976562 C 325.285156 286.976562 324.976562 286.914062 324.675781 286.789062 C 324.378906 286.667969 324.113281 286.492188 323.886719 286.261719 C 323.65625 286.035156 323.480469 285.769531 323.359375 285.472656 C 323.234375 285.175781 323.171875 284.863281 323.171875 284.542969 Z M 323.171875 284.542969 " fill-opacity="1" fill-rule="nonzero"/><path fill="#000000" d="M 148.921875 66.871094 L 149.019531 66.871094 C 159.480469 68.691406 168.472656 78.238281 169.933594 89.066406 C 169.953125 89.226562 169.917969 89.367188 169.820312 89.496094 C 169.722656 89.621094 169.59375 89.695312 169.4375 89.71875 C 169.277344 89.738281 169.136719 89.703125 169.007812 89.605469 C 168.882812 89.507812 168.808594 89.378906 168.785156 89.222656 C 167.386719 78.863281 158.800781 69.753906 148.8125 68 C 148.65625 67.984375 148.523438 67.917969 148.421875 67.796875 C 148.320312 67.675781 148.277344 67.535156 148.289062 67.378906 C 148.304688 67.222656 148.371094 67.089844 148.492188 66.988281 C 148.613281 66.886719 148.753906 66.84375 148.910156 66.855469 Z M 148.921875 66.871094 " fill-opacity="1" fill-rule="nonzero"/><path fill="#000000" d="M 148.949219 67.007812 C 149.179688 67.011719 149.347656 67.109375 149.453125 67.3125 C 153.773438 75.332031 161.105469 83.199219 169.570312 88.882812 C 169.695312 88.976562 169.765625 89.097656 169.792969 89.246094 C 169.816406 89.394531 169.789062 89.535156 169.703125 89.660156 C 169.621094 89.785156 169.503906 89.867188 169.355469 89.902344 C 169.207031 89.933594 169.066406 89.914062 168.9375 89.835938 C 160.335938 84.046875 152.847656 76.035156 148.445312 67.855469 C 148.371094 67.71875 148.351562 67.570312 148.398438 67.421875 C 148.441406 67.269531 148.535156 67.152344 148.675781 67.078125 C 148.761719 67.03125 148.851562 67.007812 148.949219 67.007812 Z M 148.949219 67.007812 " fill-opacity="1" fill-rule="nonzero"/><path fill="#000000" d="M 148.921875 66.871094 C 149.0625 66.871094 149.1875 66.914062 149.296875 67.003906 C 149.40625 67.09375 149.472656 67.207031 149.496094 67.347656 C 151.570312 79.148438 149.035156 90.75 142.546875 99.1875 C 142.449219 99.3125 142.324219 99.382812 142.164062 99.40625 C 142.007812 99.425781 141.867188 99.386719 141.742188 99.289062 C 141.617188 99.195312 141.542969 99.066406 141.523438 98.910156 C 141.5 98.753906 141.539062 98.613281 141.632812 98.488281 C 147.941406 90.304688 150.390625 79.019531 148.367188 67.566406 C 148.335938 67.410156 148.371094 67.265625 148.460938 67.136719 C 148.554688 67.003906 148.679688 66.925781 148.835938 66.902344 Z M 148.921875 66.871094 " fill-opacity="1" fill-rule="nonzero"/><path fill="#000000" d="M 148.921875 66.871094 C 149.183594 66.871094 149.363281 66.996094 149.457031 67.242188 C 149.550781 67.488281 149.496094 67.699219 149.300781 67.875 C 141.089844 75.078125 140.0625 88.746094 142.695312 99.101562 C 142.734375 99.253906 142.710938 99.398438 142.628906 99.535156 C 142.550781 99.667969 142.433594 99.753906 142.277344 99.792969 C 142.125 99.832031 141.980469 99.8125 141.847656 99.730469 C 141.710938 99.652344 141.621094 99.535156 141.582031 99.382812 C 138.867188 88.691406 139.964844 74.539062 148.542969 67.015625 C 148.652344 66.921875 148.777344 66.871094 148.921875 66.871094 Z M 148.921875 66.871094 " fill-opacity="1" fill-rule="nonzero"/><path fill="#000000" d="M 131.964844 42.820312 C 132.121094 42.820312 132.257812 42.875 132.367188 42.988281 C 132.480469 43.101562 132.535156 43.234375 132.535156 43.394531 C 132.371094 53.84375 139.503906 64.144531 149.121094 67.359375 C 149.273438 67.410156 149.382812 67.503906 149.453125 67.648438 C 149.523438 67.789062 149.535156 67.9375 149.484375 68.085938 C 149.433594 68.238281 149.335938 68.347656 149.195312 68.417969 C 149.050781 68.488281 148.90625 68.496094 148.753906 68.445312 C 138.683594 65.078125 131.21875 54.300781 131.390625 43.375 C 131.394531 43.222656 131.453125 43.089844 131.5625 42.984375 C 131.675781 42.875 131.808594 42.820312 131.964844 42.820312 Z M 131.964844 42.820312 " fill-opacity="1" fill-rule="nonzero"/><path fill="#000000" d="M 132.113281 42.632812 C 132.257812 42.632812 132.386719 42.683594 132.496094 42.78125 C 140.15625 49.789062 146.339844 58.816406 149.472656 67.570312 C 149.539062 67.722656 149.535156 67.875 149.472656 68.027344 C 149.40625 68.175781 149.292969 68.28125 149.136719 68.335938 C 148.980469 68.390625 148.832031 68.382812 148.683594 68.304688 C 148.535156 68.230469 148.4375 68.113281 148.394531 67.953125 C 145.328125 59.363281 139.222656 50.511719 131.722656 43.628906 C 131.527344 43.453125 131.476562 43.242188 131.574219 42.996094 C 131.667969 42.75 131.847656 42.628906 132.113281 42.632812 Z M 132.113281 42.632812 " fill-opacity="1" fill-rule="nonzero"/><path fill="#000000" d="M 160.394531 37.335938 C 160.652344 37.335938 160.828125 37.457031 160.921875 37.695312 C 161.019531 37.933594 160.972656 38.140625 160.789062 38.320312 C 153.335938 45.464844 149.230469 56.253906 149.511719 67.910156 C 149.511719 68.066406 149.457031 68.203125 149.34375 68.3125 C 149.230469 68.425781 149.097656 68.480469 148.9375 68.480469 C 148.78125 68.480469 148.644531 68.425781 148.535156 68.3125 C 148.421875 68.203125 148.367188 68.066406 148.367188 67.910156 C 148.078125 55.933594 152.316406 44.835938 159.996094 37.464844 C 160.113281 37.371094 160.246094 37.328125 160.394531 37.335938 Z M 160.394531 37.335938 " fill-opacity="1" fill-rule="nonzero"/><path fill="#000000" d="M 160.398438 36.929688 C 160.546875 36.925781 160.675781 36.976562 160.785156 37.074219 C 160.894531 37.175781 160.957031 37.296875 160.972656 37.445312 C 162.0625 48.414062 158.855469 62.246094 149.253906 68.40625 C 149.121094 68.492188 148.976562 68.519531 148.824219 68.484375 C 148.667969 68.449219 148.546875 68.367188 148.460938 68.234375 C 148.378906 68.101562 148.351562 67.957031 148.386719 67.804688 C 148.417969 67.648438 148.503906 67.53125 148.632812 67.445312 C 157.808594 61.546875 160.886719 48.179688 159.832031 37.558594 C 159.816406 37.398438 159.855469 37.257812 159.957031 37.136719 C 160.058594 37.011719 160.1875 36.945312 160.347656 36.929688 Z M 160.398438 36.929688 " fill-opacity="1" fill-rule="nonzero"/><g clip-path="url(#fda9b555d7)"><path fill="#000000" d="M 118.828125 10.398438 C 120.507812 10.429688 122.003906 10.964844 123.324219 12 C 126.339844 14.292969 127.863281 18.546875 127.398438 23.34375 C 127.113281 26.347656 126.160156 29.242188 125.238281 32.039062 C 124.917969 33.015625 124.578125 34.03125 124.28125 35.027344 C 121.570312 44.105469 121.988281 52.5 125.425781 58.671875 C 129.171875 65.371094 138.207031 70.125 145.675781 66.492188 C 145.820312 66.425781 145.964844 66.417969 146.117188 66.46875 C 146.265625 66.519531 146.375 66.621094 146.445312 66.761719 C 146.511719 66.90625 146.519531 67.050781 146.46875 67.199219 C 146.414062 67.347656 146.316406 67.457031 146.175781 67.523438 C 138.148438 71.429688 128.402344 66.378906 124.425781 59.226562 C 120.824219 52.785156 120.382812 44.074219 123.1875 34.699219 C 123.488281 33.6875 123.820312 32.667969 124.148438 31.683594 C 125.050781 28.945312 125.984375 26.109375 126.257812 23.230469 C 126.683594 18.832031 125.324219 14.972656 122.628906 12.921875 C 121.960938 12.378906 121.210938 11.996094 120.378906 11.773438 C 119.546875 11.554688 118.703125 11.515625 117.855469 11.65625 C 117.457031 11.734375 117.078125 11.871094 116.722656 12.066406 C 116.367188 12.261719 116.046875 12.503906 115.765625 12.796875 C 115.484375 13.089844 115.253906 13.417969 115.074219 13.78125 C 114.890625 14.144531 114.769531 14.527344 114.707031 14.925781 C 114.644531 15.808594 114.917969 16.574219 115.527344 17.21875 C 116.003906 17.785156 116.617188 18.070312 117.359375 18.078125 C 117.753906 18.046875 118.113281 17.925781 118.441406 17.710938 C 118.769531 17.496094 119.027344 17.214844 119.210938 16.867188 C 119.394531 16.585938 119.496094 16.28125 119.511719 15.945312 C 119.53125 15.613281 119.464844 15.296875 119.316406 14.996094 C 119.238281 14.859375 119.21875 14.714844 119.261719 14.5625 C 119.300781 14.410156 119.390625 14.296875 119.527344 14.21875 C 119.664062 14.136719 119.8125 14.117188 119.964844 14.160156 C 120.117188 14.199219 120.234375 14.289062 120.3125 14.429688 C 120.566406 14.902344 120.683594 15.410156 120.664062 15.949219 C 120.644531 16.488281 120.496094 16.984375 120.210938 17.441406 C 119.925781 17.972656 119.527344 18.394531 119.015625 18.710938 C 118.503906 19.03125 117.945312 19.199219 117.34375 19.222656 L 117.304688 19.222656 C 116.242188 19.203125 115.359375 18.792969 114.65625 17.996094 C 114.253906 17.574219 113.953125 17.085938 113.753906 16.539062 C 113.554688 15.988281 113.472656 15.421875 113.507812 14.839844 C 113.582031 14.316406 113.734375 13.816406 113.960938 13.34375 C 114.191406 12.867188 114.488281 12.4375 114.851562 12.050781 C 115.214844 11.667969 115.625 11.347656 116.089844 11.089844 C 116.550781 10.835938 117.042969 10.65625 117.5625 10.550781 C 117.976562 10.457031 118.402344 10.40625 118.828125 10.398438 Z M 118.828125 10.398438 " fill-opacity="1" fill-rule="nonzero"/></g><path fill="#000000" d="M 189.527344 54.792969 C 190.175781 54.792969 190.824219 54.832031 191.464844 54.902344 C 192.804688 55.058594 194.105469 55.355469 195.378906 55.800781 C 196.648438 56.246094 197.851562 56.824219 198.992188 57.539062 C 200.132812 58.253906 201.183594 59.085938 202.136719 60.03125 C 203.09375 60.980469 203.929688 62.019531 204.652344 63.15625 C 206.046875 65.359375 206.628906 68.308594 204.8125 70.027344 C 203.929688 70.835938 202.644531 71.171875 200.988281 71.039062 C 195.457031 70.589844 193.484375 68.527344 192.800781 66.871094 C 191.769531 64.371094 193.03125 61.574219 194.523438 59.800781 C 194.625 59.679688 194.757812 59.617188 194.914062 59.605469 C 195.074219 59.59375 195.210938 59.640625 195.332031 59.742188 C 195.449219 59.84375 195.515625 59.976562 195.527344 60.132812 C 195.542969 60.289062 195.496094 60.429688 195.394531 60.550781 C 194.148438 62 192.996094 64.410156 193.835938 66.4375 C 194.671875 68.464844 197.128906 69.582031 201.050781 69.871094 C 201.96875 69.945312 203.21875 69.871094 204.003906 69.15625 C 205.339844 67.925781 204.789062 65.554688 203.65625 63.757812 C 203.320312 63.226562 202.957031 62.714844 202.5625 62.222656 C 202.171875 61.730469 201.753906 61.265625 201.308594 60.820312 C 200.863281 60.378906 200.394531 59.960938 199.902344 59.570312 C 199.410156 59.175781 198.898438 58.816406 198.363281 58.480469 C 197.832031 58.148438 197.28125 57.84375 196.714844 57.574219 C 196.148438 57.300781 195.566406 57.0625 194.972656 56.855469 C 194.378906 56.648438 193.777344 56.476562 193.164062 56.335938 C 192.550781 56.199219 191.929688 56.09375 191.304688 56.023438 C 190.679688 55.953125 190.054688 55.921875 189.425781 55.921875 C 188.796875 55.921875 188.167969 55.960938 187.542969 56.03125 C 186.917969 56.101562 186.300781 56.207031 185.6875 56.347656 C 185.074219 56.488281 184.472656 56.664062 183.878906 56.875 C 183.285156 57.082031 182.707031 57.324219 182.140625 57.597656 C 181.574219 57.871094 181.023438 58.175781 180.492188 58.511719 C 179.960938 58.84375 179.449219 59.210938 178.960938 59.601562 C 178.46875 59.996094 178 60.414062 177.558594 60.859375 C 176.738281 61.683594 175.976562 62.625 175.265625 63.527344 C 174.066406 65.152344 172.667969 66.578125 171.066406 67.8125 C 169.605469 68.835938 168.003906 69.566406 166.269531 69.996094 C 164.535156 70.425781 162.78125 70.53125 161.007812 70.308594 C 156.550781 69.828125 154.925781 69.402344 150.113281 67.472656 C 149.96875 67.414062 149.863281 67.3125 149.800781 67.164062 C 149.738281 67.019531 149.738281 66.875 149.796875 66.726562 C 149.855469 66.578125 149.957031 66.476562 150.105469 66.414062 C 150.25 66.351562 150.398438 66.347656 150.542969 66.410156 C 155.246094 68.285156 156.851562 68.699219 161.15625 69.167969 C 162.792969 69.378906 164.410156 69.285156 166.015625 68.890625 C 167.617188 68.496094 169.09375 67.824219 170.445312 66.878906 C 171.957031 65.710938 173.277344 64.355469 174.40625 62.8125 C 175.160156 61.851562 175.960938 60.933594 176.808594 60.058594 C 178.496094 58.378906 180.445312 57.082031 182.648438 56.171875 C 184.851562 55.261719 187.144531 54.800781 189.527344 54.792969 Z M 189.527344 54.792969 " fill-opacity="1" fill-rule="nonzero"/></svg>